<?xml version="1.0" encoding="utf-8"?>
<!-- Generator: Adobe Illustrator 27.5.0, SVG Export Plug-In . SVG Version: 6.00 Build 0)  -->
<svg version="1.1" xmlns="http://www.w3.org/2000/svg" xmlns:xlink="http://www.w3.org/1999/xlink" x="0px" y="0px"
	 viewBox="0 0 1920 1080" style="enable-background:new 0 0 1920 1080;" xml:space="preserve">
<g id="BACKGROUND">
	<rect style="fill:#F8EDEC;" width="1920" height="1080"/>
</g>
<g id="OBJECTS">
	<rect y="85" style="fill:#213038;" width="1920" height="149.85"/>
	<path style="fill:none;stroke:#F8EDEC;stroke-width:8;stroke-linecap:round;stroke-linejoin:round;stroke-miterlimit:10;" d="
		M170.302,152.42c-13.859-12.742-26.058,0.368-21.511,11.711c3.704,9.238,20.789,19.887,21.511,19.887
		c0.722,0,17.807-10.648,21.511-19.887C196.361,152.788,184.161,139.677,170.302,152.42z"/>
	<polygon style="fill:#FFB3A6;" points="676.047,616.817 338.047,616.817 310.11,584.816 338.047,552.816 676.047,552.816 
		703.983,584.816 	"/>
	<g>
		<path style="fill:#213038;" d="M357.906,576.031c-9.921-9.122-18.654,0.264-15.399,8.384c2.651,6.613,14.882,14.236,15.399,14.236
			c0.517,0,12.747-7.623,15.399-14.236C376.56,576.294,367.827,566.909,357.906,576.031z"/>
		<path style="fill:#213038;" d="M656.188,576.031c-9.921-9.122-18.654,0.264-15.399,8.384c2.651,6.613,14.882,14.236,15.399,14.236
			c0.517,0,12.748-7.623,15.399-14.236C674.842,576.294,666.109,566.909,656.188,576.031z"/>
	</g>
	<g>
		<path style="fill:#F4D6D4;" d="M1390.14,451.165c-220.58-202.802-414.736,5.861-342.358,186.39
			c58.949,147.035,330.87,316.512,342.358,316.512c11.489,0,283.409-169.477,342.358-316.512
			C1804.875,457.026,1610.719,248.363,1390.14,451.165z"/>
		<g>
			<g>
				<g>
					<path style="fill:#213038;" d="M1205.489,934.12c-0.694,0-1.355-0.297-1.816-0.817c-0.46-0.519-0.676-1.212-0.592-1.901
						l14.273-117.285c0.042-0.35,0.16-0.687,0.347-0.985c10.545-17.009,24.83-25.999,41.311-25.999
						c13.978,0,28.653,6.667,42.44,19.281c26.817,24.533,27.682,89.361,27.526,103.918c2.261-0.236,5.64-0.507,9.289-0.507
						c3.8,0,7.11,0.297,9.84,0.882c10.043,2.151,12.782,18.748,13.062,20.633c0.103,0.698-0.103,1.406-0.563,1.94
						s-1.132,0.841-1.837,0.841H1205.489z"/>
					<path style="fill:#213038;" d="M1259.012,789.558c13.14-0.001,27.238,6.235,40.803,18.645
						c29.166,26.684,26.684,104.875,26.684,104.875s5.517-0.828,11.768-0.828c3.126,0,6.435,0.207,9.331,0.828
						c8.688,1.862,11.17,18.617,11.17,18.617H1205.49l14.273-117.286C1230.053,797.812,1243.898,789.56,1259.012,789.558
						 M1259.016,784.706v4.852V784.706h-0.004c-17.117,0.002-32.52,9.642-43.373,27.146c-0.371,0.599-0.608,1.271-0.693,1.971
						l-14.273,117.286c-0.168,1.379,0.264,2.764,1.184,3.803s2.243,1.635,3.632,1.635h153.278c1.411,0,2.752-0.614,3.674-1.683
						c0.922-1.068,1.333-2.485,1.126-3.881c-0.305-2.056-3.312-20.156-14.953-22.65c-2.896-0.62-6.377-0.935-10.348-0.935
						c-2.49,0-4.859,0.123-6.852,0.276c-0.024-18.78-2.201-79.151-28.325-103.051
						C1288.848,791.593,1273.607,784.706,1259.016,784.706L1259.016,784.706z"/>
				</g>
				<g>
					
						<path style="fill:none;stroke:#FFCD63;stroke-width:4.8522;stroke-linecap:round;stroke-linejoin:round;stroke-miterlimit:10;" d="
						M1341.399,912.333c0,0,7.13,3.848,8.371,19.362"/>
					
						<path style="fill:none;stroke:#FFCD63;stroke-width:4.8522;stroke-linecap:round;stroke-linejoin:round;stroke-miterlimit:10;" d="
						M1330.456,912.333c0,0,7.13,3.848,8.371,19.362"/>
				</g>
			</g>
			<g>
				<g>
					<path style="fill:#213038;" d="M1394.352,934.12c-0.963,0-1.835-0.569-2.222-1.45c-0.356-0.813-35.936-81.792-59.832-129.588
						c-0.303-0.605-0.339-1.309-0.1-1.942c0.102-0.269,10.1-27.527-0.027-57.314c-5.04-14.823-3.63-28.83,3.97-39.441
						c6.594-9.207,17.271-14.704,28.56-14.704c0.656,0,1.314,0.018,1.974,0.057c24.177,1.369,26.202,5.861,27.092,60.094
						c0.805,48.995,23.198,145.127,26.868,160.568c2.232-0.249,5.91-0.574,9.914-0.574c3.801,0,7.111,0.297,9.841,0.882
						c10.042,2.151,12.781,18.747,13.061,20.633c0.104,0.698-0.102,1.406-0.563,1.94s-1.132,0.841-1.837,0.841H1394.352z"/>
					<path style="fill:#213038;" d="M1364.7,692.107c0.612,0,1.223,0.017,1.837,0.052c21.919,1.241,23.916,3.723,24.803,57.712
						c0.887,53.989,27.44,163.207,27.44,163.207s5.517-0.828,11.768-0.828c3.126,0,6.435,0.207,9.331,0.828
						c8.688,1.862,11.17,18.617,11.17,18.617h-56.698c0,0-35.682-81.293-59.884-129.697c0,0,10.55-27.925,0-58.953
						C1324.213,712.886,1343.485,692.107,1364.7,692.107 M1364.7,687.254L1364.7,687.254c-12.07,0-23.484,5.876-30.532,15.718
						c-8.068,11.265-9.593,26.051-4.294,41.634c9.875,29.044,0.154,55.413,0.055,55.676c-0.478,1.266-0.406,2.674,0.199,3.885
						c23.871,47.743,59.424,128.665,59.781,129.477c0.774,1.763,2.517,2.902,4.443,2.902h56.698c1.411,0,2.752-0.614,3.674-1.682
						s1.333-2.485,1.126-3.881c-0.305-2.056-3.312-20.155-14.953-22.65c-2.896-0.62-6.377-0.935-10.348-0.935
						c-3.006,0-5.837,0.179-8.042,0.375c-4.812-20.441-25.544-111.063-26.314-157.982c-0.474-28.886-1.265-42.291-4.933-50.53
						c-4.824-10.835-14.8-11.4-24.447-11.947C1366.111,687.274,1365.401,687.254,1364.7,687.254L1364.7,687.254z"/>
				</g>
				<g>
					
						<path style="fill:none;stroke:#FFCD63;stroke-width:4.8522;stroke-linecap:round;stroke-linejoin:round;stroke-miterlimit:10;" d="
						M1433.681,912.333c0,0,7.13,3.848,8.371,19.362"/>
					
						<path style="fill:none;stroke:#FFCD63;stroke-width:4.8522;stroke-linecap:round;stroke-linejoin:round;stroke-miterlimit:10;" d="
						M1422.738,912.333c0,0,7.13,3.848,8.371,19.362"/>
				</g>
			</g>
			<g>
				<path style="fill:none;stroke:#1D1D1B;stroke-width:1.9409;stroke-miterlimit:10;" d="M1398.097,912.333
					c0,0,7.13,3.848,8.371,19.362"/>
				<path style="fill:none;stroke:#1D1D1B;stroke-width:1.9409;stroke-miterlimit:10;" d="M1387.155,912.333
					c0,0,7.13,3.848,8.371,19.362"/>
			</g>
			<g>
				<g>
					<path style="fill:#F57B67;" d="M1134.081,843.032c-4.361,0-8.437-1.939-11.179-5.323
						c-4.204-5.186-102.735-128.301-82.108-241.017c10.467-57.195,39.298-97.937,79.101-111.779
						c8.701-3.025,17.679-4.56,26.685-4.56c19.081,0,37.621,7.049,52.203,19.85c22.519,19.766,30.994,49.754,21.591,76.398
						c-9.148,25.924-33.043,42.792-62.357,44.019c-0.984,0.041-1.964,0.063-2.932,0.063c-19.451,0.001-35.394-8.37-44.891-23.571
						c-10.213-16.35-11.145-39.234-2.265-55.651c6.662-12.316,17.95-19.535,30.971-19.804l0.333-0.003
						c7.747,0,14.182,6.318,14.343,14.085c0.079,3.84-1.342,7.481-4.001,10.254c-2.66,2.771-6.239,4.342-10.08,4.422
						c-1.025,0.021-3.749,0.077-6.266,4.731c-3.45,6.378-4.146,17.913,1.359,26.727c4.165,6.668,11.053,10.049,20.472,10.049
						c0.576,0,1.16-0.013,1.755-0.037c17.582-0.736,31.203-10.028,36.436-24.855c5.554-15.733,0.403-33.056-13.44-45.209
						c-9.507-8.344-20.941-12.755-33.067-12.755c-5.792,0-11.646,1.015-17.399,3.015c-29.306,10.192-51.831,43.758-60.255,89.791
						c-18.282,99.9,75.21,216.556,76.156,217.723c4.994,6.16,4.047,15.234-2.111,20.229
						C1140.576,841.893,1137.362,843.032,1134.081,843.032z"/>
					<path style="fill:#213038;" d="M1146.578,482.78c18.357,0,36.201,6.604,50.604,19.247
						c21.77,19.109,29.974,48.065,20.903,73.767c-8.812,24.97-31.869,41.218-60.171,42.403c-0.952,0.04-1.896,0.06-2.831,0.06
						c-18.624,0-33.754-7.899-42.833-22.43c-9.773-15.645-10.673-37.525-2.188-53.212c6.235-11.527,16.764-18.281,28.887-18.533
						c0.094-0.002,0.189-0.003,0.283-0.003c6.473,0,11.783,5.202,11.917,11.709c0.137,6.601-5.104,12.063-11.705,12.2
						c-1.277,0.027-5.161,0.107-8.351,6.003c-3.776,6.981-4.556,19.575,1.436,29.166c4.643,7.432,12.209,11.19,22.53,11.19
						c0.609,0,1.226-0.013,1.854-0.039c18.61-0.78,33.049-10.676,38.624-26.472c5.89-16.688,0.476-35.019-14.128-47.839
						c-10.033-8.806-22.099-13.358-34.668-13.358c-6.006,0-12.126,1.039-18.196,3.15c-30.142,10.482-53.262,44.743-61.845,91.645
						c-18.473,100.945,75.705,218.513,76.658,219.688c4.159,5.129,3.372,12.657-1.755,16.816c-2.215,1.795-4.878,2.669-7.523,2.669
						c-3.481,0-6.931-1.511-9.293-4.425c-4.175-5.15-102.038-127.403-81.607-239.053c10.305-56.31,38.557-96.377,77.511-109.924
						C1129.231,484.235,1137.961,482.78,1146.578,482.78 M1146.578,477.927c-9.277,0-18.523,1.579-27.481,4.694
						c-40.651,14.138-70.062,55.555-80.69,113.634c-4.79,26.176-3.581,55.012,3.593,85.708
						c5.738,24.552,15.297,50.387,28.411,76.788c22.517,45.331,47.799,77.022,50.608,80.486c3.206,3.954,7.967,6.221,13.063,6.221
						c3.837,0,7.594-1.333,10.578-3.752c7.199-5.838,8.306-16.444,2.469-23.642c-0.939-1.16-93.713-117.077-75.654-215.758
						c8.264-45.161,30.195-78.034,58.666-87.935c5.496-1.911,11.082-2.88,16.602-2.88c11.529,0,22.41,4.202,31.467,12.152
						c13.083,11.484,17.97,27.799,12.754,42.578c-4.891,13.858-17.695,22.546-34.251,23.239c-0.557,0.023-1.113,0.035-1.651,0.035
						c-8.646,0-14.67-2.914-18.414-8.908c-4.838-7.744-4.452-18.43-1.283-24.287c1.846-3.412,3.425-3.445,4.184-3.461
						c9.266-0.192,16.647-7.886,16.456-17.151c-0.188-9.077-7.71-16.461-16.769-16.461c-0.132,0-0.265,0.001-0.397,0.005
						c-13.903,0.288-25.951,7.969-33.04,21.075c-9.276,17.149-8.313,41.037,2.341,58.091c9.956,15.936,26.629,24.712,46.948,24.712
						c0.999,0,2.02-0.022,3.035-0.064c30.325-1.27,55.057-18.757,64.543-45.636c9.735-27.584,0.99-58.605-22.278-79.029
						C1185.358,485.191,1166.25,477.927,1146.578,477.927L1146.578,477.927z"/>
				</g>
			</g>
			<g>
				<g>
					<path style="fill:#FFCD63;" d="M1128.851,934.12c-1.024,0-1.937-0.642-2.282-1.604
						c-22.779-63.275-20.043-136.637,6.972-186.897c18.367-34.172,58.834-55.144,85.612-69.021
						c11.442-5.93,21.322-11.051,22.986-14.137c8.974-16.635,13.272-37.688,13.142-64.365c-0.017-3.192-0.096-6.534-0.235-9.931
						c-1.081-26.107,2.408-53.72,3.533-61.759c-29.584-6.251-40.305-28.258-44.082-41.035c-3.294-11.145-3.757-24.155-0.952-26.771
						c0.865-0.808,2.054-1.217,3.532-1.217c3.414,0,8.684,2.178,15.977,5.192c4.989,2.062,10.643,4.398,16.644,6.398
						c14.184,4.728,29.541,8.785,33.511,9.815c21.845-13.061,49.579-20.839,74.416-20.839c3.052,0,6.004,0.124,8.773,0.368
						c21.313,1.879,37.091,22.353,48.454,39.98c5.978,9.27,10.848,10.654,13.219,10.654c1.166,0,1.827-0.322,1.854-0.336
						c0.36-0.204,0.754-0.304,1.151-0.304c0.287,0,0.576,0.052,0.855,0.156c0.669,0.248,1.169,0.791,1.413,1.461
						c0.431,1.185,10.375,29.209-5.617,44.101c-10.089,9.395-40.775,23.318-52.537,28.465c1.649,8.489,8.213,42.773,12.016,70.022
						c0.553,3.057,13.578,77.645-13.407,125.846c-15.138,27.039-35.795,37.337-55.771,47.297
						c-12.369,6.166-24.053,11.991-34.237,21.548c-13.388,12.564-24.328,24.721-32.53,36.146c1.024,12.182,1.104,22.288,1.07,26.981
						c2.26-0.237,5.643-0.508,9.299-0.508c3.8,0,7.11,0.297,9.84,0.882c10.042,2.151,12.782,18.747,13.062,20.633
						c0.103,0.698-0.103,1.406-0.563,1.94s-1.132,0.841-1.837,0.841H1128.851z"/>
					<path style="fill:#213038;" d="M1217.077,459.809c5.096,0.001,17.527,6.691,31.852,11.466
						c16.652,5.551,34.659,10.116,34.659,10.116c25.039-15.246,53.334-21.017,74.035-21.017c3.027,0,5.893,0.124,8.561,0.359
						c20.916,1.844,36.49,23.152,46.628,38.877c6.407,9.937,12.005,11.766,15.258,11.766c1.894,0,2.994-0.62,2.994-0.62
						s10.01,27.528-4.99,41.496c-8.571,7.981-34.291,20.416-53.638,28.793c0,0.001,8.003,40.525,12.368,71.805
						c0,0,13.749,76.329-13.122,124.326c-23.972,42.819-62.338,42.722-89.552,68.262c-15.971,14.988-26.478,27.531-33.364,37.231
						c1.509,17.306,1.094,30.409,1.094,30.409s5.516-0.827,11.768-0.827c3.126,0,6.436,0.207,9.331,0.827
						c8.688,1.862,11.17,18.617,11.17,18.617h-153.278c-22.34-62.056-19.858-135.282,6.826-184.927
						c26.684-49.645,102.383-71.633,108.598-83.155c9.534-17.675,13.561-39.205,13.431-65.528
						c-0.016-3.265-0.096-6.604-0.238-10.018c-1.281-30.942,3.843-63.6,3.843-63.6c-49.102-8.72-49.102-61.303-46.113-64.091
						C1215.616,459.985,1216.249,459.809,1217.077,459.809 M1217.078,454.956L1217.078,454.956c-2.113,0-3.859,0.629-5.189,1.87
						c-4.47,4.17-2.474,19.91,0.282,29.234c3.837,12.979,14.557,35.111,43.695,42.217c-1.359,10.129-4.263,35.395-3.245,59.989
						c0.139,3.365,0.218,6.676,0.233,9.842c0.129,26.259-4.074,46.932-12.849,63.201c-1.413,2.482-12.811,8.388-21.968,13.134
						c-27.043,14.015-67.911,35.195-86.633,70.027c-13.415,24.957-21.151,56.055-22.372,89.932
						c-1.213,33.634,4.062,67.846,15.255,98.936c0.693,1.925,2.519,3.209,4.565,3.209h153.278c1.411,0,2.752-0.614,3.674-1.683
						c0.922-1.068,1.333-2.485,1.126-3.881c-0.305-2.056-3.312-20.156-14.953-22.65c-2.895-0.62-6.377-0.935-10.348-0.935
						c-2.494,0-4.867,0.123-6.862,0.277c-0.016-5.187-0.201-13.613-1.015-23.63c8.054-11.09,18.71-22.88,31.699-35.07
						c9.925-9.315,21.454-15.062,33.66-21.147c20.306-10.123,41.303-20.591,56.805-48.282
						c11.557-20.643,17.362-48.415,17.256-82.547c-0.077-24.561-3.276-43.218-3.575-44.91c-3.556-25.449-9.548-57.222-11.656-68.156
						c12.926-5.71,41.56-18.93,51.44-28.13c17.155-15.974,6.697-45.458,6.244-46.706c-0.524-1.441-1.442-2.716-2.911-3.156
						c-0.539-0.162-1.061-0.249-1.566-0.249c-0.824,0-1.604,0.232-2.345,0.749c-0.138,0.035-0.385,0.082-0.732,0.082
						c-1.179,0-5.471-0.688-11.18-9.543c-11.664-18.091-27.92-39.11-50.28-41.081c-2.84-0.25-5.864-0.377-8.987-0.378
						c-24.924,0-52.714,7.7-74.783,20.663c-5.072-1.329-19.237-5.133-32.376-9.513c-5.919-1.973-11.532-4.292-16.483-6.339
						C1226.429,457.212,1220.973,454.957,1217.078,454.956L1217.078,454.956z"/>
				</g>
				<g>
					
						<path style="fill:none;stroke:#213038;stroke-width:4.8522;stroke-linecap:round;stroke-linejoin:round;stroke-miterlimit:10;" d="
						M1264.76,912.333c0,0,7.13,3.848,8.371,19.362"/>
					
						<path style="fill:none;stroke:#213038;stroke-width:4.8522;stroke-linecap:round;stroke-linejoin:round;stroke-miterlimit:10;" d="
						M1253.817,912.333c0,0,7.13,3.848,8.371,19.362"/>
				</g>
				<g>
					<defs>
						<path id="SVGID_1_" d="M1431.063,510.755c0,0-8.113,4.579-18.251-11.145c-10.138-15.725-25.712-37.033-46.628-38.877
							c-20.916-1.844-53.896,3.182-82.596,20.658c0,0-18.007-4.566-34.659-10.116c-16.652-5.551-30.742-13.688-33.731-10.9
							c-2.989,2.788-2.989,55.371,46.113,64.091c0,0-5.124,32.659-3.843,63.6c0.141,3.414,0.221,6.753,0.238,10.018
							c0.129,26.323-3.897,47.853-13.431,65.528c-6.215,11.522-81.914,33.51-108.598,83.155
							c-26.684,49.645-29.166,122.871-6.826,184.927h153.278c0,0-2.482-16.755-11.17-18.617c-8.688-1.862-21.099,0-21.099,0
							s0.415-13.103-1.094-30.409c6.885-9.7,17.393-22.244,33.363-37.232c27.214-25.54,65.58-25.443,89.552-68.262
							c26.871-47.996,13.122-124.326,13.122-124.326c-4.366-31.28-12.368-71.804-12.368-71.805
							c19.347-8.377,45.067-20.812,53.638-28.793C1441.073,538.283,1431.063,510.755,1431.063,510.755z"/>
					</defs>
					<clipPath id="SVGID_00000058548881753730542370000009730556515860158879_">
						<use xlink:href="#SVGID_1_"  style="overflow:visible;"/>
					</clipPath>
					<g style="clip-path:url(#SVGID_00000058548881753730542370000009730556515860158879_);">
						<g>
							<path style="fill:#F57B67;" d="M1103.331,668.077c0,0,0.585,0.592,1.683,1.7c0.536,0.555,1.214,1.232,1.966,2.04
								c0.786,0.794,1.639,1.724,2.611,2.754c3.878,4.122,9.212,10.009,15.4,17.004c3.071,3.512,6.392,7.28,9.818,11.277
								c3.416,3.965,7.018,8.145,10.745,12.47c3.679,4.282,7.481,8.707,11.344,13.203c3.885,4.44,7.768,8.979,11.745,13.41
								l2.943,3.358c1.014,1.085,1.995,2.197,2.984,3.3c1.96,2.226,3.967,4.376,5.933,6.545l1.46,1.636l1.497,1.579
								c0.983,1.066,1.961,2.128,2.933,3.182c1.924,2.136,3.93,4.123,5.81,6.204c1.909,2.044,3.86,3.967,5.696,5.963
								c1.889,1.939,3.737,3.836,5.537,5.682c1.782,1.892,3.621,3.59,5.328,5.366c1.701,1.788,3.431,3.398,5.062,5.017
								c3.23,3.295,6.351,6.145,9.057,8.881c2.78,2.593,5.215,4.948,7.228,6.937c2.061,1.89,3.671,3.474,4.766,4.581
								c1.095,1.107,1.672,1.736,1.672,1.736s-0.833-0.045-2.382-0.201c-1.549-0.156-3.816-0.424-6.69-0.892
								c-2.84-0.529-6.249-1.333-10.158-2.382c-3.8-1.225-8.211-2.536-12.731-4.524c-2.283-0.959-4.685-1.956-7.049-3.176
								c-1.201-0.583-2.403-1.211-3.636-1.836c-1.24-0.617-2.475-1.281-3.692-1.999c-1.233-0.699-2.465-1.436-3.719-2.179
								c-1.251-0.745-2.538-1.485-3.761-2.322c-1.245-0.813-2.495-1.649-3.748-2.508c-1.25-0.861-2.552-1.693-3.765-2.64
								c-4.975-3.658-9.952-7.67-14.7-12.06c-2.355-2.211-4.765-4.417-7.002-6.791c-1.137-1.171-2.286-2.337-3.405-3.533
								l-3.28-3.649c-4.355-4.889-8.371-10.045-12.151-15.23c-3.724-5.224-7.169-10.511-10.203-15.798
								c-3.083-5.255-5.733-10.523-8.092-15.578c-2.315-5.083-4.31-9.97-5.922-14.581c-1.647-4.59-2.889-8.914-3.908-12.758
								c-0.981-3.867-1.711-7.271-2.179-10.122c-0.496-2.837-0.751-5.109-0.888-6.665c-0.079-0.773-0.1-1.382-0.124-1.786
								C1103.341,668.286,1103.331,668.077,1103.331,668.077z"/>
						</g>
						<g>
							<path style="fill:#F57B67;" d="M1151.152,664.315c0,0,1.581,1.373,4.349,3.775c1.34,1.151,2.967,2.549,4.834,4.152
								c1.78,1.613,3.942,3.315,6.085,5.25c2.285,1.854,4.548,3.959,7.104,6.05c1.264,1.054,2.489,2.182,3.798,3.287
								c1.332,1.088,2.657,2.221,3.987,3.381c1.305,1.181,2.696,2.324,4.099,3.482c1.383,1.176,2.772,2.371,4.142,3.602
								c1.422,1.184,2.875,2.356,4.283,3.583c0.705,0.613,1.424,1.213,2.119,1.84c0.692,0.63,1.397,1.248,2.142,1.826
								c1.446,1.203,2.899,2.397,4.308,3.633c1.429,1.213,2.785,2.505,4.253,3.651c1.434,1.185,2.842,2.384,4.221,3.591
								c1.391,1.192,2.688,2.475,4.084,3.592c2.743,2.298,5.347,4.618,7.782,6.914c2.49,2.215,4.876,4.307,7.016,6.377
								c1.073,1.03,2.1,2.031,3.062,3.02c0.953,1.004,1.944,1.817,2.809,2.705c1.761,1.721,3.282,3.283,4.514,4.63
								c2.474,2.674,3.806,4.443,3.806,4.443s-2.158-0.079-5.79-0.638c-1.822-0.27-4.008-0.67-6.5-1.202
								c-1.245-0.267-2.569-0.559-3.93-0.946c-1.357-0.393-2.768-0.845-4.239-1.331c-2.931-0.989-6.113-2.092-9.374-3.476
								c-3.213-1.468-6.564-3.116-9.982-4.923c-1.737-0.86-3.357-1.97-5.058-3.001c-1.682-1.062-3.372-2.158-5.06-3.288
								c-1.707-1.102-3.324-2.367-4.943-3.638c-1.63-1.259-3.229-2.57-4.835-3.873c-1.608-1.297-3.083-2.771-4.59-4.179
								c-1.5-1.421-2.972-2.856-4.4-4.314c-1.382-1.513-2.724-3.04-4.039-4.554c-0.648-0.764-1.292-1.524-1.932-2.278
								c-0.642-0.75-1.203-1.575-1.799-2.348c-1.167-1.572-2.297-3.126-3.369-4.669c-0.556-0.752-1.028-1.572-1.518-2.353
								c-0.487-0.785-0.965-1.561-1.421-2.336c-1.893-3.039-3.357-6.166-4.703-8.99c-0.631-1.451-1.194-2.863-1.703-4.21
								c-0.512-1.342-0.981-2.626-1.335-3.878c-0.783-2.449-1.29-4.667-1.644-6.491c-0.179-0.913-0.293-1.751-0.386-2.472
								c-0.107-0.71-0.158-1.343-0.191-1.851C1151.131,664.854,1151.152,664.315,1151.152,664.315z"/>
						</g>
						<g>
							<path style="fill:#F57B67;" d="M1185.31,637.47c0,0,1.797,0.947,4.796,2.625c1.483,0.839,3.284,1.858,5.349,3.027
								c2.026,1.167,4.312,2.484,6.806,3.921c4.884,2.839,10.582,6.151,16.686,9.7c3.024,1.728,6.15,3.514,9.326,5.329
								c3.16,1.818,6.404,3.585,9.636,5.362c1.605,0.91,3.254,1.731,4.855,2.633c1.623,0.857,3.24,1.71,4.844,2.557
								c1.613,0.831,3.214,1.656,4.795,2.471c1.591,0.803,3.162,1.597,4.708,2.378c1.557,0.77,3.088,1.527,4.587,2.268
								c1.513,0.711,2.989,1.433,4.426,2.153c2.901,1.353,5.651,2.686,8.233,3.851c1.276,0.642,2.527,1.165,3.713,1.705
								c1.19,0.551,2.319,1.073,3.379,1.563c2.144,0.925,4.019,1.824,5.581,2.538c3.134,1.372,4.949,2.346,4.949,2.346
								s-1.976,0.386-5.477,0.73c-1.749,0.161-3.861,0.208-6.31,0.254c-2.423-0.058-5.191-0.113-8.167-0.444
								c-1.488-0.162-3.045-0.339-4.645-0.573c-1.595-0.254-3.233-0.571-4.932-0.872c-1.68-0.352-3.396-0.763-5.152-1.193
								c-1.75-0.443-3.509-0.984-5.308-1.52c-1.793-0.55-3.578-1.206-5.401-1.843c-1.807-0.67-3.607-1.417-5.429-2.163
								c-1.794-0.798-3.603-1.605-5.392-2.472c-1.774-0.891-3.56-1.782-5.304-2.745c-1.733-0.981-3.485-1.932-5.161-2.991
								c-1.701-1.018-3.359-2.09-4.977-3.19c-3.257-2.17-6.328-4.495-9.22-6.832c-2.868-2.372-5.571-4.738-7.993-7.141
								c-2.445-2.373-4.64-4.737-6.591-6.983c-3.893-4.507-6.748-8.601-8.571-11.592
								C1186.113,639.347,1185.31,637.47,1185.31,637.47z"/>
						</g>
						<g>
							<path style="fill:#F57B67;" d="M1197.55,616.212c0,0,5.375,1.128,13.436,2.82c1.972,0.416,4.108,0.866,6.367,1.342
								c2.261,0.443,4.61,0.983,7.065,1.449c1.219,0.253,2.458,0.511,3.713,0.772c1.263,0.227,2.537,0.464,3.812,0.738
								c0.639,0.132,1.28,0.264,1.923,0.397c0.646,0.117,1.297,0.221,1.944,0.352c1.296,0.246,2.598,0.493,3.899,0.741
								c2.595,0.534,5.221,0.897,7.779,1.44c2.576,0.427,5.114,0.85,7.57,1.328c2.461,0.425,4.854,0.784,7.123,1.217
								c1.134,0.234,2.241,0.427,3.316,0.585c1.076,0.183,2.116,0.36,3.115,0.53c1.003,0.191,1.963,0.374,2.877,0.548
								c0.458,0.095,0.905,0.187,1.339,0.276c0.435,0.073,0.858,0.143,1.268,0.212c1.641,0.287,3.081,0.565,4.271,0.823
								c1.19,0.244,2.132,0.499,2.774,0.646c0.644,0.17,0.988,0.261,0.988,0.261s-0.335,0.115-0.967,0.297
								c-0.632,0.17-1.56,0.459-2.75,0.746c-1.189,0.301-2.64,0.631-4.313,0.978c-1.673,0.388-3.568,0.563-5.646,0.836
								c-2.076,0.212-4.34,0.526-6.729,0.556c-2.389,0.055-4.923,0.146-7.534,0.053c-1.306-0.047-2.63-0.146-3.972-0.234
								c-1.342-0.091-2.706-0.158-4.066-0.338c-2.722-0.346-5.49-0.715-8.234-1.223c-2.726-0.604-5.479-1.076-8.115-1.871
								c-2.656-0.703-5.244-1.492-7.703-2.401c-2.48-0.831-4.81-1.849-7.012-2.795c-2.188-0.996-4.224-2.005-6.064-3.016
								c-1.837-1.022-3.492-2.001-4.916-2.956c-1.436-0.92-2.635-1.829-3.615-2.566c-0.973-0.76-1.704-1.403-2.202-1.842
								C1197.793,616.471,1197.55,616.212,1197.55,616.212z"/>
						</g>
						<g>
							<path style="fill:#F57B67;" d="M1089.668,718.492c0,0,0.323,0.481,0.889,1.41c0.563,0.923,1.384,2.271,2.385,3.987
								c2.031,3.424,4.827,8.299,8.141,14.073c1.644,2.875,3.426,5.99,5.31,9.284c1.887,3.256,3.877,6.689,5.935,10.24
								c2.042,3.542,4.221,7.148,6.387,10.825c2.222,3.644,4.45,7.353,6.769,10.997l1.713,2.748l1.755,2.711
								c1.148,1.819,2.339,3.594,3.505,5.37c2.34,3.545,4.696,6.995,7.002,10.33c1.17,1.657,2.321,3.287,3.447,4.883
								c1.149,1.587,2.273,3.139,3.367,4.65c1.068,1.543,2.225,2.937,3.259,4.377c1.02,1.456,2.111,2.762,3.105,4.08
								c0.987,1.326,1.953,2.585,2.903,3.757c0.928,1.196,1.833,2.313,2.652,3.406c1.715,2.096,3.199,3.977,4.425,5.543
								c2.529,3.035,3.908,4.95,3.908,4.95s-2.169-0.796-5.848-2.506c-1.812-0.889-3.963-2.058-6.419-3.455
								c-2.372-1.489-5.11-3.149-7.879-5.227c-2.827-2.02-5.732-4.403-8.726-7.027c-1.469-1.335-2.997-2.703-4.477-4.174
								c-1.467-1.481-2.985-2.988-4.448-4.588c-2.927-3.198-5.835-6.617-8.574-10.247c-1.359-1.821-2.748-3.649-4.022-5.56
								l-1.945-2.854l-1.856-2.916c-2.465-3.897-4.7-7.926-6.796-11.938c-2.041-4.04-3.933-8.07-5.549-12.059
								c-3.29-7.952-5.648-15.64-7.24-22.325c-0.791-3.346-1.401-6.44-1.841-9.204c-0.45-2.76-0.734-5.19-0.918-7.196
								c-0.185-2.007-0.259-3.594-0.29-4.679C1089.678,719.072,1089.668,718.492,1089.668,718.492z"/>
						</g>
					</g>
				</g>
				
					<path style="fill:none;stroke:#213038;stroke-width:4.8522;stroke-linecap:round;stroke-linejoin:round;stroke-miterlimit:10;" d="
					M1250.474,882.668c-2.178-24.974-10.072-58.704-27.299-74.465c-29.166-26.684-60.815-24.822-80.052,6.206"/>
			</g>
			<g>
				<g>
					<g>
						<g>
							<path style="fill:#FFFFFF;" d="M1640.516,860.112c-4.1,0-7.964-1.992-10.338-5.33c-4.038-5.681-2.711-13.601,2.959-17.654
								c0.603-0.437,61.109-45.267,79.728-147.382c8.878-48.683,3.466-88.861-15.24-113.137
								c-10.752-13.95-25.646-22.037-43.072-23.387c-1.683-0.13-3.393-0.196-5.083-0.196c-21.366,0-41.246,10.292-51.879,26.858
								c-9.661,15.051-9.691,32.867-0.086,50.166c6.351,11.438,16.762,17.997,28.564,17.997c2.042,0,4.136-0.195,6.222-0.581
								c10.932-2.016,22.81-9.981,24.706-23.235c0.887-6.203,6.269-10.882,12.52-10.882c0.606,0,1.22,0.045,1.824,0.132
								c3.348,0.479,6.312,2.234,8.342,4.943c2.03,2.708,2.885,6.045,2.405,9.396c-3.184,22.262-21.348,40.174-45.198,44.572
								c-3.62,0.668-7.276,1.006-10.868,1.007c-20.939,0.001-39.884-11.604-50.677-31.045c-14.14-25.467-13.807-53.227,0.914-76.162
								c15.248-23.756,43.316-38.513,73.253-38.513c2.327,0,4.683,0.091,6.999,0.271c24.778,1.918,45.938,13.394,61.191,33.187
								c23.142,30.029,30.28,77.318,20.1,133.155c-20.612,113.04-87.128,161.467-89.949,163.474
								C1645.693,859.302,1643.157,860.112,1640.516,860.112z"/>
							<path style="fill:#213038;" d="M1649.51,530.107c2.265,0,4.534,0.087,6.812,0.264c24.075,1.864,44.635,13.015,59.457,32.249
								c22.718,29.479,29.69,76.087,19.635,131.238c-20.438,112.09-86.18,159.95-88.969,161.932
								c-1.801,1.281-3.875,1.896-5.929,1.896c-3.205,0-6.361-1.499-8.36-4.311c-3.274-4.605-2.202-10.99,2.393-14.274
								c0.616-0.443,61.845-45.491,80.703-148.92c9.002-49.37,3.424-90.229-15.705-115.053
								c-11.182-14.51-26.676-22.921-44.806-24.326c-1.761-0.136-3.52-0.203-5.27-0.203c-22.02,0-42.788,10.628-53.922,27.974
								c-10.165,15.837-10.224,34.537-0.165,52.655c6.863,12.36,18.035,19.246,30.686,19.246c2.182,0,4.407-0.205,6.662-0.622
								c11.785-2.173,24.6-10.832,26.667-25.277c0.73-5.106,5.105-8.8,10.118-8.8c0.487,0,0.98,0.035,1.477,0.107
								c5.602,0.801,9.494,5.993,8.693,11.595c-3.036,21.229-20.412,38.321-43.237,42.53c-3.515,0.648-7.002,0.966-10.428,0.966
								c-20.011,0-38.024-10.826-48.556-29.796c-13.692-24.661-13.387-51.515,0.836-73.674
								C1593.173,544.332,1620.591,530.108,1649.51,530.107 M1649.514,525.254v4.852l-0.001-4.852
								c-30.758,0.002-59.609,15.187-75.296,39.628c-15.219,23.711-15.581,52.378-0.994,78.65
								c5.552,9.999,13.311,18.228,22.438,23.798c9.107,5.557,19.605,8.495,30.36,8.495c3.739,0,7.543-0.352,11.308-1.047
								c24.876-4.587,43.828-23.32,47.16-46.614c1.179-8.242-4.567-15.906-12.809-17.085c-0.711-0.103-1.442-0.156-2.164-0.156
								c-7.45,0-13.865,5.574-14.922,12.965c-1.725,12.06-12.666,19.334-22.743,21.192c-1.943,0.359-3.888,0.541-5.782,0.541
								c-11.055,0-20.447-5.948-26.444-16.749c-9.151-16.482-9.148-33.414,0.007-47.678c10.192-15.879,29.289-25.743,49.838-25.743
								c1.628,0,3.275,0.064,4.896,0.189c16.722,1.295,31.017,9.058,41.337,22.45c18.281,23.722,23.528,63.221,14.775,111.22
								c-9.548,52.368-30.326,89.12-46.075,110.729c-17.36,23.82-32.548,35.02-32.699,35.13c-6.734,4.813-8.315,14.249-3.503,21.017
								c2.828,3.977,7.432,6.351,12.315,6.351c3.148,0,6.171-0.966,8.741-2.794c2.854-2.028,70.141-50.999,90.931-165.016
								c10.305-56.521,3.002-104.49-20.565-135.071c-15.684-20.352-37.443-32.152-62.926-34.125
								C1654.318,525.348,1651.901,525.254,1649.514,525.254L1649.514,525.254z"/>
						</g>
					</g>
					<path style="fill:#FFB3A6;" d="M1636.449,670.008c22.825-4.209,40.201-21.301,43.237-42.53
						c0.802-5.602-3.091-10.794-8.693-11.595c-5.605-0.812-10.794,3.091-11.595,8.693c-2.067,14.445-14.881,23.104-26.667,25.277
						c-15.333,2.834-29.302-4.133-37.349-18.624c-0.037-0.067-0.068-0.134-0.104-0.201c-4.992,4.068-10.631,9.539-14.275,15.753
						C1593.84,665.197,1614.53,674.05,1636.449,670.008z"/>
					<g>
						<defs>
							<path id="SVGID_00000047028431457698564490000008644724497364784003_" d="M1640.516,857.687c-3.205,0-6.361-1.499-8.36-4.311
								c-3.274-4.605-2.202-10.99,2.393-14.274l0,0c0.616-0.443,61.845-45.491,80.703-148.92
								c9.002-49.37,3.424-90.229-15.705-115.053c-11.182-14.51-26.676-22.921-44.806-24.326
								c-23.926-1.851-47.173,9.046-59.192,27.771c-10.165,15.837-10.224,34.537-0.165,52.655
								c8.047,14.491,22.016,21.458,37.349,18.624c11.785-2.173,24.6-10.832,26.667-25.277c0.801-5.602,5.99-9.504,11.595-8.693
								c5.602,0.801,9.495,5.993,8.693,11.595c-3.036,21.229-20.412,38.321-43.237,42.53c-24.048,4.436-46.649-6.612-58.984-28.83
								c-13.692-24.661-13.387-51.515,0.836-73.674c16.037-24.987,46.657-39.568,78.022-37.133
								c24.075,1.864,44.635,13.015,59.457,32.249c22.718,29.479,29.69,76.087,19.635,131.238
								c-20.438,112.09-86.18,159.95-88.969,161.932C1644.644,857.071,1642.57,857.687,1640.516,857.687z"/>
						</defs>
						<clipPath id="SVGID_00000141433468329531060710000005897826781231685303_">
							<use xlink:href="#SVGID_00000047028431457698564490000008644724497364784003_"  style="overflow:visible;"/>
						</clipPath>
						<g style="clip-path:url(#SVGID_00000141433468329531060710000005897826781231685303_);">
							<g>
								<path style="fill:none;stroke:#FFB3A6;stroke-width:15.5271;stroke-miterlimit:10;" d="M1604.926,599.281
									c0,0-39.282,4.809-56.36,23.156"/>
								<path style="fill:none;stroke:#FFB3A6;stroke-width:15.5271;stroke-miterlimit:10;" d="M1617.735,574.182
									c0,0-13.548-22.487-50.325-38.146"/>
								<path style="fill:none;stroke:#FFB3A6;stroke-width:15.5271;stroke-miterlimit:10;" d="M1663.848,565.403
									c0,0,0.854-33.247-21.349-57.497"/>
							</g>
						</g>
					</g>
				</g>
				<g>
					<g>
						<path style="fill:#AAD6D3;" d="M1430.721,934.12c-0.705,0-1.376-0.307-1.837-0.841s-0.666-1.242-0.563-1.94
							c0.259-1.744,2.794-17.093,12.139-19.096c2.518-0.54,5.569-0.814,9.069-0.814c3.238,0,6.244,0.231,8.319,0.443
							c-0.131-13.804,0.793-72.821,25.318-95.259c12.687-11.607,26.197-17.741,39.071-17.741c15.192,0,28.355,8.28,38.067,23.945
							c0.187,0.3,0.305,0.636,0.347,0.985l13.095,107.598c0.084,0.689-0.132,1.382-0.592,1.901
							c-0.461,0.521-1.122,0.817-1.816,0.817H1430.721z"/>
						<path style="fill:#213038;" d="M1522.237,801.299c13.865,0,26.567,7.572,36.007,22.798l13.094,107.597h-140.617
							c0,0,2.277-15.371,10.247-17.079c2.657-0.569,5.693-0.759,8.561-0.759c5.735,0,10.796,0.759,10.796,0.759
							s-2.277-71.732,24.48-96.211C1497.249,807.019,1510.182,801.299,1522.237,801.299 M1522.237,796.447
							c-13.491,0-27.567,6.355-40.708,18.377c-23.884,21.851-26.057,76.655-26.114,94.403c-1.744-0.126-3.768-0.223-5.886-0.223
							c-3.671,0-6.893,0.292-9.577,0.867c-10.944,2.345-13.747,19.198-14.031,21.112c-0.207,1.396,0.204,2.812,1.126,3.881
							c0.922,1.068,2.263,1.682,3.674,1.682h140.617c1.389,0,2.711-0.595,3.632-1.635c0.921-1.04,1.352-2.424,1.184-3.803
							l-13.094-107.597c-0.085-0.699-0.322-1.372-0.693-1.971C1552.335,805.359,1538.083,796.447,1522.237,796.447L1522.237,796.447
							z"/>
					</g>
					<g>
						
							<path style="fill:none;stroke:#213038;stroke-width:4.8522;stroke-linecap:round;stroke-linejoin:round;stroke-miterlimit:10;" d="
							M1446.655,913.932c0,0-6.541,3.53-7.68,17.763"/>
						
							<path style="fill:none;stroke:#213038;stroke-width:4.8522;stroke-linecap:round;stroke-linejoin:round;stroke-miterlimit:10;" d="
							M1456.694,913.932c0,0-6.541,3.53-7.68,17.763"/>
					</g>
				</g>
				<g>
					<g>
						<path style="fill:#AAD6D3;" d="M1346.062,934.12c-0.705,0-1.376-0.307-1.837-0.841s-0.666-1.242-0.563-1.94
							c0.259-1.744,2.794-17.093,12.14-19.096c2.518-0.54,5.568-0.814,9.069-0.814c3.577,0,6.872,0.282,8.94,0.509
							c3.487-14.69,23.867-102.345,24.603-147.088c0.82-49.925,2.692-54.061,25.043-55.327c0.608-0.035,1.216-0.052,1.822-0.052
							c10.422,0,20.277,5.074,26.364,13.572c7.011,9.789,8.313,22.704,3.668,36.365c-9.29,27.324-0.121,52.196-0.027,52.444
							c0.239,0.633,0.203,1.337-0.1,1.942c-21.921,43.844-54.558,118.128-54.885,118.873c-0.387,0.882-1.259,1.451-2.222,1.451
							H1346.062z"/>
						<path style="fill:#213038;" d="M1425.279,711.898c19.463,0,37.142,19.063,27.735,46.73c-9.678,28.465,0,54.083,0,54.083
							c-22.203,44.405-54.937,118.983-54.937,118.983h-52.015c0,0,2.277-15.371,10.247-17.079c2.657-0.569,5.693-0.759,8.561-0.759
							c5.735,0,10.796,0.759,10.796,0.759s24.36-100.196,25.174-149.725c0.813-49.529,2.646-51.806,22.754-52.945
							C1424.157,711.914,1424.718,711.898,1425.279,711.898 M1425.279,707.045c-0.65,0-1.31,0.019-1.96,0.056
							c-8.97,0.508-18.246,1.033-22.771,11.197c-3.394,7.623-4.124,19.955-4.56,46.513c-0.702,42.75-19.494,125.123-24.051,144.51
							c-1.979-0.169-4.451-0.316-7.067-0.316c-3.671,0-6.893,0.292-9.577,0.867c-10.944,2.345-13.747,19.198-14.031,21.112
							c-0.207,1.396,0.204,2.813,1.126,3.881c0.922,1.068,2.263,1.683,3.674,1.683h52.015c1.926,0,3.669-1.139,4.443-2.902
							c0.327-0.745,32.941-74.977,54.834-118.763c0.605-1.211,0.677-2.619,0.199-3.885c-0.087-0.233-8.911-24.436,0.055-50.807
							c4.904-14.423,3.485-28.116-3.994-38.559C1447.073,712.498,1436.48,707.045,1425.279,707.045L1425.279,707.045z"/>
					</g>
					<g>
						
							<path style="fill:none;stroke:#213038;stroke-width:4.8522;stroke-linecap:round;stroke-linejoin:round;stroke-miterlimit:10;" d="
							M1361.996,913.932c0,0-6.541,3.53-7.68,17.763"/>
						
							<path style="fill:none;stroke:#213038;stroke-width:4.8522;stroke-linecap:round;stroke-linejoin:round;stroke-miterlimit:10;" d="
							M1372.035,913.932c0,0-6.541,3.53-7.68,17.763"/>
					</g>
				</g>
				<g>
					
						<path style="fill:none;stroke:#213038;stroke-width:2.9113;stroke-linecap:round;stroke-linejoin:round;stroke-miterlimit:10;" d="
						M1299.723,609.554c0,0,22.378,5.311,37.586,16.928"/>
					
						<path style="fill:none;stroke:#213038;stroke-width:2.9113;stroke-linecap:round;stroke-linejoin:round;stroke-miterlimit:10;" d="
						M1288.828,642.521c0,0,22.956-5.863,48.603-4.955"/>
					
						<path style="fill:none;stroke:#213038;stroke-width:2.9113;stroke-linecap:round;stroke-linejoin:round;stroke-miterlimit:10;" d="
						M1308.78,664.315c0,0,16.888-11.939,30.927-17.666"/>
				</g>
				<g>
					<g>
						<path style="fill:#FFFFFF;" d="M1501.029,934.12c-0.705,0-1.376-0.307-1.837-0.841s-0.666-1.243-0.563-1.94
							c0.258-1.744,2.793-17.093,12.138-19.096c2.518-0.54,5.569-0.814,9.069-0.814c3.243,0,6.253,0.232,8.329,0.444
							c-0.028-4.393,0.059-13.514,0.978-24.473c-7.516-10.456-17.528-21.578-29.774-33.069
							c-9.322-8.749-20.028-14.087-31.363-19.737c-18.354-9.15-37.331-18.611-51.249-43.47
							c-22.354-39.931-14.825-99.549-12.747-113.003c-17.085-1.289-45.682-5.813-63.826-21.309
							c-15.167-12.951-11.739-34.832-11.586-35.757c0.109-0.657,0.483-1.241,1.036-1.614c0.404-0.272,0.878-0.415,1.357-0.415
							c0.176,0,0.352,0.019,0.525,0.058c-0.003-0.001,0.122,0.004,0.239,0.004c3.023,0,7.223-3.404,9.938-12.959
							c5.273-18.551,13.672-40.791,31.952-48.17c12.828-5.178,29.684-8.148,46.245-8.148c10.8,0,21.337,1.217,31.354,3.619
							c3.068-6.043,13.881-25.552,31.098-37.536c0.41-0.286,0.895-0.435,1.386-0.435c0.177,0,0.354,0.02,0.528,0.059
							c0.663,0.148,1.233,0.566,1.573,1.155c0.498,0.863,12.224,21.44,13.525,46.832c1.323,25.828,16.968,85.801,38.471,120.987
							c1.625,2.658,10.301,7.15,20.347,12.352c24.787,12.834,62.244,32.229,79.348,64.05c24.809,46.156,27.324,113.521,6.407,171.62
							c-0.346,0.963-1.259,1.604-2.282,1.604H1501.029z"/>
						<path style="fill:#213038;" d="M1483.729,517.887c0,0,11.917,20.643,13.203,45.743c1.286,25.1,16.826,86.13,38.824,122.128
							c6.262,10.247,75.147,30.742,99.627,76.286c24.48,45.544,26.757,112.721,6.262,169.651h-140.617
							c0,0,2.277-15.371,10.247-17.079c2.657-0.569,5.693-0.759,8.561-0.759c5.735,0,10.796,0.759,10.796,0.759
							s-0.38-12.021,1.004-27.897c-6.317-8.899-15.956-20.406-30.607-34.156c-24.966-23.43-60.163-23.341-82.155-62.623
							c-24.651-44.032-12.038-114.056-12.038-114.056c-15.664-0.955-46.33-4.904-65.078-20.914
							c-14.299-12.211-10.767-33.516-10.767-33.516s0.279,0.062,0.765,0.062c2.168,0,8.438-1.235,12.272-14.722
							c4.693-16.51,12.664-39.373,30.526-46.583c11.254-4.542,27.434-7.972,45.336-7.971c10.514,0,21.624,1.183,32.671,4.019
							C1452.562,556.258,1463.905,531.686,1483.729,517.887 M1483.729,513.034c-0.983,0-1.952,0.299-2.772,0.87
							c-16.267,11.323-26.947,29.15-30.993,36.74c-9.646-2.162-19.743-3.257-30.072-3.257c-16.859,0-34.046,3.034-47.152,8.324
							c-19.257,7.773-27.953,30.673-33.378,49.756c-2.509,8.825-5.951,11.189-7.597,11.197c-0.257-0.042-0.516-0.062-0.773-0.062
							c-0.96,0-1.907,0.285-2.716,0.831c-1.104,0.746-1.853,1.913-2.071,3.227c-0.162,0.98-3.793,24.167,12.403,37.999
							c17.764,15.171,45.048,20.098,62.636,21.67c-0.963,6.965-2.435,20.168-2.485,36.056c-0.098,31.382,5.245,56.927,15.881,75.925
							c14.283,25.511,33.601,35.143,52.284,44.457c11.171,5.569,21.722,10.829,30.784,19.334
							c11.851,11.121,21.579,21.877,28.943,31.996c-0.715,8.865-0.895,16.362-0.918,21.131c-1.746-0.127-3.774-0.223-5.896-0.223
							c-3.671,0-6.893,0.292-9.577,0.867c-10.944,2.345-13.747,19.198-14.031,21.112c-0.207,1.396,0.204,2.813,1.126,3.881
							s2.263,1.682,3.674,1.682h140.617c2.046,0,3.872-1.283,4.565-3.209c10.285-28.57,15.132-60.007,14.018-90.914
							c-1.123-31.139-8.236-59.728-20.572-82.678c-17.459-32.481-55.317-52.083-80.368-65.055
							c-8.023-4.154-18.008-9.325-19.396-11.468c-20.98-34.332-36.836-94.869-38.116-119.842
							c-1.331-25.968-13.336-47.036-13.847-47.921c-0.679-1.176-1.82-2.014-3.145-2.31
							C1484.436,513.073,1484.082,513.034,1483.729,513.034L1483.729,513.034z"/>
					</g>
					<g>
						
							<path style="fill:none;stroke:#213038;stroke-width:2.9113;stroke-linecap:round;stroke-linejoin:round;stroke-miterlimit:10;" d="
							M1479.808,633.379c0,0-22.83-2.789-41.125,2.825"/>
						
							<path style="fill:none;stroke:#213038;stroke-width:2.9113;stroke-linecap:round;stroke-linejoin:round;stroke-miterlimit:10;" d="
							M1478.579,668.077c0,0-19.492-13.469-43.859-21.522"/>
						
							<path style="fill:none;stroke:#213038;stroke-width:2.9113;stroke-linecap:round;stroke-linejoin:round;stroke-miterlimit:10;" d="
							M1452.301,681.587c0,0-11.691-17.06-22.869-27.305"/>
					</g>
					
						<path style="fill:none;stroke:#213038;stroke-width:4.8522;stroke-linecap:round;stroke-linejoin:round;stroke-miterlimit:10;" d="
						M1482.619,529.327c0,0,4.111,17.003-0.229,44.854"/>
					<g>
						
							<path style="fill:none;stroke:#213038;stroke-width:4.8522;stroke-linecap:round;stroke-linejoin:round;stroke-miterlimit:10;" d="
							M1516.963,913.932c0,0-6.541,3.53-7.679,17.763"/>
						
							<path style="fill:none;stroke:#213038;stroke-width:4.8522;stroke-linecap:round;stroke-linejoin:round;stroke-miterlimit:10;" d="
							M1527.002,913.932c0,0-6.541,3.53-7.68,17.763"/>
					</g>
					<path style="fill:#FFB3A6;" d="M1494.767,730.163c8.539,16.51,27.896,22.203,43.836,28.465
						c14.232,5.693,16.51,17.648,27.326,26.757c12.525,10.247,22.772,10.817,30.742-3.985c7.401-13.094,10.247-17.648,25.618-19.356
						c4.518-0.519,8.317-1.474,11.487-2.784c-25.73-43.589-91.888-63.467-98.021-73.502c-0.742-1.215-1.476-2.463-2.203-3.733
						c-6.202-1.024-12.53-1.885-18.861,0.317C1494.767,689.174,1485.089,711.376,1494.767,730.163z"/>
					<path style="fill:#FFB3A6;" d="M1643.739,780.683c-7.877-1.459-15.777-2.642-22.019,4.702
						c-9.678,11.955-3.416,31.881-9.678,44.975c-6.262,13.663-26.757,29.034-18.218,45.544c10.817,20.495,35.866,11.955,48.96,0
						c4.307-3.933,8.308-7.612,12.344-10.951C1656.854,835.144,1653.03,805.763,1643.739,780.683z"/>
					
						<path style="fill:none;stroke:#213038;stroke-width:4.8522;stroke-linecap:round;stroke-linejoin:round;stroke-miterlimit:10;" d="
						M1628.552,824.097c-17.648-28.465-46.682-30.173-73.439-5.693c-15.804,14.459-23.187,45.358-25.185,68.269"/>
				</g>
				<g>
					<g>
						<path style="fill:#FFFFFF;" d="M1408.309,914.615c0,0-11.386-1.708-19.356,0c-7.97,1.708-10.247,17.079-10.247,17.079h52.015
							c0,0,32.735-74.578,54.937-118.983c0,0-9.678-25.618,0-54.083c9.678-28.465-9.313-47.821-29.421-46.683
							c-20.108,1.139-30.398,14.233-31.211,63.761C1424.213,825.236,1408.309,914.615,1408.309,914.615z"/>
					</g>
					<path style="fill:#FFB3A6;" d="M1422.304,816.039c-4.753,46.634-13.995,98.577-13.995,98.577s-11.386-1.708-19.356,0
						c-7.97,1.708-10.247,17.079-10.247,17.079h52.015c0,0,21.361-48.665,41.276-90.779
						C1459.842,813.499,1435.478,813.629,1422.304,816.039z"/>
					<g>
						
							<path style="fill:none;stroke:#213038;stroke-width:4.8522;stroke-linecap:round;stroke-linejoin:round;stroke-miterlimit:10;" d="
							M1394.64,913.932c0,0-6.541,3.53-7.68,17.763"/>
						
							<path style="fill:none;stroke:#213038;stroke-width:4.8522;stroke-linecap:round;stroke-linejoin:round;stroke-miterlimit:10;" d="
							M1404.679,913.932c0,0-6.541,3.53-7.68,17.763"/>
					</g>
					
						<path style="fill:none;stroke:#213038;stroke-width:4.8522;stroke-linecap:round;stroke-linejoin:round;stroke-miterlimit:10;" d="
						M1425.026,775.707c-0.813,49.529-16.716,138.909-16.716,138.909s-11.386-1.708-19.356,0
						c-7.97,1.708-10.247,17.079-10.247,17.079h52.015c0,0,32.735-74.578,54.937-118.983c0,0-9.678-25.618,0-54.083"/>
				</g>
				<g>
					<path style="fill:#F4D6D4;" d="M1434.103,628.21c-0.728,4.064-6.775,6.38-13.507,5.174c-6.731-1.206-11.598-5.478-10.87-9.542
						c0.728-4.064,6.775-6.38,13.507-5.174S1434.831,624.146,1434.103,628.21z"/>
					<path style="fill:#F4D6D4;" d="M1340.02,611.353c-0.728,4.064,4.138,8.336,10.87,9.542s12.778-1.11,13.506-5.174
						c0.728-4.064-4.138-8.336-10.87-9.542C1346.795,604.972,1340.748,607.289,1340.02,611.353z"/>
					<g>
						<g>
							
								<path style="fill:none;stroke:#213038;stroke-width:2.9113;stroke-linecap:round;stroke-linejoin:round;stroke-miterlimit:10;" d="
								M1376.125,633.438c0,0,0.024,9.547,8.797,12.637c8.772,3.09,19.095-1.015,21.297-12.342"/>
							
								<path style="fill:none;stroke:#213038;stroke-width:2.9113;stroke-linecap:round;stroke-linejoin:round;stroke-miterlimit:10;" d="
								M1376.71,633.542c0,0-3.338,8.945-12.638,8.797c-9.3-0.148-17.555-7.582-15.687-18.969"/>
						</g>
						<path style="fill:#F57B67;" d="M1377.806,633.739c-2.99,0.203-15.586-8.642-15.629-10.822
							c-0.043-2.18,34.707,3.616,34.465,6.175C1396.401,631.652,1380.441,633.56,1377.806,633.739z"/>
					</g>
					
						<path style="fill:none;stroke:#213038;stroke-width:5.8227;stroke-linecap:round;stroke-linejoin:round;stroke-miterlimit:10;" d="
						M1418.874,601.841l-2.824,15.761c-0.707,3.946-4.479,6.572-8.425,5.865l0,0c-3.946-0.707-6.572-4.479-5.865-8.425l2.824-15.76"
						/>
					
						<path style="fill:none;stroke:#213038;stroke-width:5.8227;stroke-linecap:round;stroke-linejoin:round;stroke-miterlimit:10;" d="
						M1363.457,591.911l-2.824,15.761c-0.707,3.946,1.919,7.718,5.865,8.425l0,0c3.946,0.707,7.718-1.919,8.425-5.865l2.824-15.76"
						/>
				</g>
			</g>
			<g>
				<g>
					<path style="fill:#FFCD63;" d="M1354.887,677.422c0,0,12.537,19.118,34.952,23.388c22.414,4.27,54.562-3.416,61.972,0
						c7.41,3.416,31.32,24.338,35.59,35.439c4.27,11.101,6.405,27.753,0,33.304c-6.405,5.551-24.88,8.967-30.159,5.978
						c-5.279-2.989-9.981-28.178-25.238-31.596c-15.257-3.418-81.055,22.63-100.358,19.214
						c-19.303-3.416-43.641-39.962-46.203-48.589C1282.88,705.934,1306.62,658.326,1354.887,677.422z"/>
				</g>
				<path style="fill:#F57B67;" d="M1457.241,775.53c5.279,2.989,23.755-0.427,30.159-5.978c6.405-5.551,4.27-22.203,0-33.304
					c-4.27-11.101-28.18-32.023-35.59-35.439c-4.168-1.922-16.164-0.33-29.852,0.67c-11.215,9.811-19.144,24.364-11.816,45.058
					c9.736-2.264,17.692-3.537,21.86-2.603C1447.26,747.352,1451.961,772.542,1457.241,775.53z"/>
				<g>
					
						<path style="fill:none;stroke:#213038;stroke-width:4.8522;stroke-linecap:round;stroke-linejoin:round;stroke-miterlimit:10;" d="
						M1467.026,755.268c0,0,7.573,13.1,2.752,21.37"/>
					
						<path style="fill:none;stroke:#213038;stroke-width:4.8522;stroke-linecap:round;stroke-linejoin:round;stroke-miterlimit:10;" d="
						M1480.142,749.912c0,0,9.393,5.551,7.259,19.641"/>
				</g>
				
					<path style="fill:none;stroke:#213038;stroke-width:4.8522;stroke-linecap:round;stroke-linejoin:round;stroke-miterlimit:10;" d="
					M1354.887,677.422c0,0,12.537,19.118,34.952,23.388c22.414,4.27,54.562-3.416,61.972,0c7.41,3.416,31.32,24.338,35.59,35.439
					c4.27,11.101,6.405,27.753,0,33.304c-6.405,5.551-24.88,8.967-30.159,5.978c-5.279-2.989-9.981-28.178-25.238-31.596
					c-15.257-3.418-81.055,22.63-100.358,19.214c-19.303-3.416-43.641-39.962-46.203-48.589"/>
			</g>
			<g>
				<g>
					<path style="fill:#213038;" d="M1315.471,510.332c-0.133,0-0.266-0.011-0.399-0.033c-31.396-5.226-42.819-27.914-46.835-40.974
						c-3.416-11.11-4.022-24.117-1.245-26.764c0.874-0.834,2.089-1.256,3.61-1.256c3.415,0,8.67,2.105,15.942,5.019
						c5.011,2.008,10.69,4.283,16.711,6.218c16.436,5.281,34.415,9.648,34.595,9.692c0.719,0.174,1.319,0.667,1.631,1.339
						c0.311,0.672,0.298,1.449-0.035,2.11l-21.809,43.313C1317.22,509.825,1316.375,510.332,1315.471,510.332z"/>
					<path style="fill:#213038;" d="M1270.602,443.732c5.136,0,17.593,6.52,31.911,11.121c16.711,5.37,34.766,9.74,34.766,9.74
						l-21.809,43.313c-49.193-8.188-49.763-60.768-46.804-63.588C1269.089,443.914,1269.743,443.732,1270.602,443.732
						 M1270.602,438.879c-2.166,0-3.943,0.648-5.284,1.926c-0.835,0.796-2.792,2.661-2.465,11.662
						c0.202,5.558,1.29,11.797,3.064,17.568c4.18,13.596,16.072,37.217,48.757,42.657c0.267,0.044,0.534,0.066,0.798,0.066
						c1.809,0,3.498-1.014,4.332-2.67l21.809-43.313c0.666-1.322,0.691-2.876,0.07-4.22c-0.622-1.344-1.823-2.33-3.262-2.678
						c-0.179-0.043-18.084-4.393-34.423-9.644c-5.941-1.909-11.578-4.168-16.551-6.16
						C1279.921,441.058,1274.484,438.879,1270.602,438.879L1270.602,438.879z"/>
				</g>
				<g>
					
						<path style="fill:none;stroke:#213038;stroke-width:2.9113;stroke-linecap:round;stroke-linejoin:round;stroke-miterlimit:10;" d="
						M1459.888,488.415c0,0-21.648,12.647-33.815,29.591"/>
					
						<path style="fill:none;stroke:#213038;stroke-width:2.9113;stroke-linecap:round;stroke-linejoin:round;stroke-miterlimit:10;" d="
						M1481.721,519.33c0,0-25.8,1.178-52.254,10.272"/>
					
						<path style="fill:none;stroke:#213038;stroke-width:2.9113;stroke-linecap:round;stroke-linejoin:round;stroke-miterlimit:10;" d="
						M1467.838,548.393c0,0-21.402-7.085-37.86-8.596"/>
				</g>
				<path style="fill:#FFCD63;" d="M1431.063,510.755c0,0-8.113,4.579-18.251-11.145c-10.138-15.725-25.712-37.033-46.628-38.877
					c-20.916-1.844-53.896,3.182-82.596,20.658c0,0-18.007-4.566-34.659-10.116c-16.652-5.551-30.742-13.688-33.731-10.9
					c-2.989,2.788-2.989,55.371,46.113,64.091c0,0-5.124,32.659-3.843,63.6c0.141,3.414,0.221,6.753,0.238,10.018l97.547-10.018
					c16.03-5.971,59.197-24.992,70.82-35.814C1441.073,538.283,1431.063,510.755,1431.063,510.755z"/>
				<g>
					
						<path style="fill:none;stroke:#213038;stroke-width:2.9113;stroke-linecap:round;stroke-linejoin:round;stroke-miterlimit:10;" d="
						M1279.675,570.462c0,0,22.92-10.161,43.78-10.118"/>
					
						<path style="fill:none;stroke:#213038;stroke-width:2.9113;stroke-linecap:round;stroke-linejoin:round;stroke-miterlimit:10;" d="
						M1291.979,606.253c0,0,16.047-20.237,38.896-36.374"/>
					
						<path style="fill:none;stroke:#213038;stroke-width:2.9113;stroke-linecap:round;stroke-linejoin:round;stroke-miterlimit:10;" d="
						M1323.672,611.993c0,0,6.772-21.503,15.173-35.736"/>
				</g>
				
					<path style="fill:none;stroke:#213038;stroke-width:4.8522;stroke-linecap:round;stroke-linejoin:round;stroke-miterlimit:10;" d="
					M1216.621,466.578c0,0,9.109,0,15.371,13.094c6.262,13.094,19.356,42.697,39.282,35.297"/>
				<g>
					<path style="fill:#FFB3A6;" d="M1325.691,550.554c2.05,4.006,9.092,4.501,15.727,1.105c6.636-3.396,10.353-9.396,8.303-13.403
						c-2.05-4.006-9.092-4.501-15.727-1.105C1327.359,540.548,1323.641,546.548,1325.691,550.554z"/>
					<path style="fill:#FFB3A6;" d="M1418.44,503.091c2.05,4.006-1.667,10.007-8.303,13.402c-6.636,3.396-13.677,2.901-15.727-1.105
						c-2.05-4.006,1.667-10.007,8.303-13.403C1409.349,498.59,1416.39,499.085,1418.44,503.091z"/>
					<g>
						<path style="fill:#F57B67;" d="M1386.15,538.437c3.182-0.738,13.506-13.962,12.859-16.249
							c-0.648-2.287-35.042,14.795-33.976,17.387C1366.098,542.167,1383.346,539.087,1386.15,538.437z"/>
						<g>
							
								<path style="fill:none;stroke:#213038;stroke-width:2.9113;stroke-linecap:round;stroke-linejoin:round;stroke-miterlimit:10;" d="
								M1387.807,537.589c0,0,3.007,9.963-5.159,15.972c-8.166,6.009-20.233,5.008-26.128-6.104"/>
							
								<path style="fill:none;stroke:#213038;stroke-width:2.9113;stroke-linecap:round;stroke-linejoin:round;stroke-miterlimit:10;" d="
								M1387.23,537.884c0,0,6.322,8.267,15.972,5.158c9.65-3.108,15.897-13.482,10.332-24.763"/>
						</g>
					</g>
					
						<path style="fill:none;stroke:#213038;stroke-width:5.8227;stroke-linecap:round;stroke-linejoin:round;stroke-miterlimit:10;" d="
						M1333.195,518.221l7.951,15.537c1.991,3.89,6.758,5.43,10.648,3.439l0,0c3.89-1.991,5.43-6.758,3.439-10.648l-7.951-15.537"/>
					
						<path style="fill:none;stroke:#213038;stroke-width:5.8227;stroke-linecap:round;stroke-linejoin:round;stroke-miterlimit:10;" d="
						M1387.826,490.263l7.951,15.537c1.991,3.89,0.451,8.657-3.439,10.648l0,0c-3.89,1.991-8.657,0.451-10.648-3.439l-7.951-15.537"
						/>
				</g>
			</g>
			
				<path style="fill:none;stroke:#213038;stroke-width:4.8522;stroke-linecap:round;stroke-linejoin:round;stroke-miterlimit:10;" d="
				M1429.432,551.755c0,0-43.779,31.193-89.725,37.908"/>
		</g>
		<g>
			<path style="fill:#F57B67;" d="M1679.79,445.672c-2.247,0-27.087-15.984-32.571-29.665c-2.572-6.417-1.869-13.559,1.882-19.104
				c3.354-4.958,8.628-7.802,14.469-7.802c5.335,0,10.913,2.36,16.221,6.845c5.308-4.484,10.887-6.845,16.221-6.845
				c5.84,0,11.113,2.844,14.468,7.803c3.751,5.545,4.455,12.687,1.883,19.103C1706.877,429.688,1682.037,445.672,1679.79,445.672z"
				/>
			<path style="fill:#FFFFFF;" d="M1696.011,391.042c11.752,0,19.154,12.755,14.549,24.243
				c-5.298,13.215-29.737,28.447-30.77,28.447c-1.032,0-25.471-15.232-30.769-28.447c-4.606-11.488,2.796-24.245,14.549-24.243
				c4.846,0.001,10.433,2.17,16.221,7.491C1685.579,393.211,1691.164,391.042,1696.011,391.042 M1696.011,387.16
				c-5.374,0-10.929,2.162-16.221,6.286c-5.291-4.123-10.846-6.285-16.22-6.286h-0.003c-6.495,0-12.353,3.154-16.074,8.655
				c-4.113,6.08-4.889,13.898-2.076,20.915c2.492,6.216,8.608,13.207,18.179,20.779c3.063,2.423,6.466,4.872,9.582,6.893
				c4.95,3.212,5.683,3.212,6.611,3.212c0.928,0,1.661,0,6.611-3.212c3.116-2.022,6.519-4.47,9.583-6.893
				c9.571-7.572,15.687-14.563,18.179-20.779c2.813-7.015,2.036-14.833-2.076-20.913
				C1708.365,390.315,1702.506,387.16,1696.011,387.16L1696.011,387.16z"/>
		</g>
		<g>
			<path style="fill:#F57B67;" d="M1081.56,445.672c-2.247,0-27.087-15.984-32.571-29.665c-2.573-6.417-1.869-13.559,1.881-19.103
				c3.354-4.958,8.628-7.803,14.47-7.803c5.334,0,10.913,2.36,16.221,6.845c5.308-4.484,10.886-6.845,16.221-6.845
				c5.84,0,11.113,2.844,14.468,7.803c3.751,5.545,4.455,12.687,1.883,19.103C1108.646,429.688,1083.808,445.672,1081.56,445.672z"
				/>
			<path style="fill:#FFFFFF;" d="M1097.781,391.042c11.752,0,19.155,12.755,14.549,24.243
				c-5.298,13.215-29.737,28.447-30.77,28.447c-1.033,0-25.471-15.232-30.77-28.447c-4.606-11.488,2.796-24.245,14.549-24.243
				c4.846,0.001,10.433,2.17,16.221,7.491C1087.349,393.211,1092.934,391.042,1097.781,391.042 M1097.781,387.16
				c-5.374,0-10.929,2.162-16.221,6.286c-5.291-4.123-10.846-6.285-16.22-6.286h-0.003c-6.494,0-12.353,3.154-16.074,8.655
				c-4.113,6.08-4.889,13.898-2.076,20.915c2.492,6.216,8.608,13.207,18.179,20.779c3.063,2.423,6.466,4.872,9.583,6.893
				c4.95,3.212,5.683,3.212,6.611,3.212s1.661,0,6.611-3.212c3.116-2.022,6.519-4.47,9.583-6.893
				c9.571-7.572,15.687-14.563,18.179-20.779c2.813-7.015,2.036-14.833-2.076-20.913
				C1110.135,390.315,1104.276,387.16,1097.781,387.16L1097.781,387.16z"/>
		</g>
		<g>
			<path style="fill:#F57B67;" d="M1541.614,478.231c-1.899,0-17.566-10.325-21.051-19.015c-1.699-4.239-1.231-8.96,1.25-12.629
				c2.235-3.305,5.754-5.2,9.653-5.2c3.353,0,6.833,1.4,10.147,4.066c3.314-2.667,6.795-4.066,10.147-4.066
				c3.899,0,7.418,1.896,9.653,5.201c2.482,3.669,2.95,8.39,1.251,12.628C1559.181,467.906,1543.513,478.231,1541.614,478.231z"/>
			<path style="fill:#FFFFFF;" d="M1551.762,443.327c7.352,0,11.983,7.98,9.102,15.166c-3.314,8.267-18.603,17.796-19.249,17.796
				c-0.646,0-15.935-9.529-19.249-17.796c-2.881-7.187,1.749-15.167,9.102-15.166c3.031,0,6.527,1.358,10.148,4.686
				C1545.235,444.684,1548.73,443.327,1551.762,443.327 M1551.762,439.446c-2.474,0-6.075,0.676-10.148,3.573
				c-4.072-2.896-7.673-3.572-10.147-3.573h-0.002c-4.553,0-8.657,2.206-11.26,6.053c-2.844,4.204-3.383,9.602-1.444,14.439
				c1.655,4.127,5.631,8.702,11.82,13.598c1.951,1.543,4.119,3.103,6.105,4.392c3.145,2.04,3.883,2.243,4.927,2.243
				c1.044,0,1.782-0.203,4.927-2.243c1.986-1.289,4.155-2.849,6.105-4.392c6.189-4.896,10.165-9.471,11.82-13.598
				c1.939-4.837,1.399-10.235-1.444-14.438C1560.42,441.652,1556.315,439.446,1551.762,439.446L1551.762,439.446z"/>
		</g>
		<g>
			<path style="fill:#F57B67;" d="M1205.489,386.237c-1.9,0-17.566-10.325-21.051-19.015c-1.699-4.239-1.231-8.96,1.25-12.629
				c2.236-3.305,5.755-5.201,9.653-5.201c3.354,0,6.834,1.4,10.147,4.067c3.314-2.667,6.795-4.067,10.147-4.067
				c3.899,0,7.418,1.896,9.653,5.201c2.482,3.669,2.95,8.39,1.251,12.628C1223.057,375.912,1207.389,386.237,1205.489,386.237z"/>
			<path style="fill:#FFFFFF;" d="M1215.637,351.333c7.352,0,11.983,7.98,9.102,15.166c-3.315,8.267-18.604,17.796-19.25,17.796
				c-0.646,0-15.935-9.529-19.249-17.796c-2.881-7.187,1.749-15.167,9.102-15.166c3.031,0.001,6.527,1.358,10.147,4.686
				C1209.111,352.69,1212.605,351.333,1215.637,351.333 M1215.637,347.452c-2.474,0-6.075,0.676-10.148,3.573
				c-4.071-2.896-7.673-3.572-10.147-3.573h-0.002c-4.553,0-8.657,2.206-11.26,6.053c-2.844,4.204-3.383,9.602-1.444,14.439
				c1.655,4.127,5.631,8.702,11.82,13.598c1.951,1.543,4.119,3.103,6.105,4.392c3.145,2.041,3.883,2.243,4.927,2.243
				c1.044,0,1.782-0.203,4.927-2.243c1.986-1.289,4.155-2.849,6.106-4.392c6.189-4.896,10.165-9.471,11.82-13.598
				c1.939-4.837,1.399-10.235-1.444-14.438C1224.295,349.659,1220.191,347.452,1215.637,347.452L1215.637,347.452z"/>
		</g>
		
			<line style="fill:none;stroke:#213038;stroke-width:7.7635;stroke-linecap:round;stroke-linejoin:round;stroke-miterlimit:10;" x1="1012.314" y1="933.362" x2="1767.966" y2="933.362"/>
	</g>
	<path style="fill:#FBF7EC;" d="M1767.966,169.234c0,10.94-8.868,19.808-19.808,19.808h-238.192
		c-10.94,0-19.808-8.868-19.808-19.808l0,0c0-10.94,8.868-19.808,19.808-19.808h238.192
		C1759.097,149.427,1767.966,158.295,1767.966,169.234L1767.966,169.234z"/>
	<path style="fill:#213038;" d="M491.893,855.626c0,12.535-10.161,22.696-22.696,22.696H285.69
		c-12.534,0-22.696-10.161-22.696-22.696l0,0c0-12.535,10.161-22.696,22.696-22.696h183.507
		C481.731,832.93,491.893,843.092,491.893,855.626L491.893,855.626z"/>
	<path style="fill:none;stroke:#213038;stroke-width:4;stroke-miterlimit:10;" d="M751.099,855.626
		c0,12.535-10.161,22.696-22.696,22.696H544.896c-12.535,0-22.696-10.161-22.696-22.696l0,0c0-12.535,10.161-22.696,22.696-22.696
		h183.507C740.938,832.93,751.099,843.092,751.099,855.626L751.099,855.626z"/>
</g>
<g id="TEXTS">
	<g>
		<g>
			<g>
				<g>
					<path style="fill:#FFFFFF;stroke:#FFFFFF;stroke-width:2.8338;stroke-linejoin:round;stroke-miterlimit:10;" d="
						M207.314,458.289c4.837,0.807,7.529,2.384,8.099,4.689c0.261,1.055,0.099,2.772-0.474,5.151
						c-5.4,20.875-10.41,41.814-15.038,62.873c-0.366,1.651-1.204,3.132-2.512,4.449c-1.308,1.317-2.787,2.21-4.443,2.681
						c-0.414,0.118-0.62,0.177-1.034,0.295c-1.724,0.492-3.486,0.523-5.294,0.094c-1.807-0.429-3.301-1.246-4.483-2.456
						c-15.053-15.459-30.376-30.601-46.008-45.474c-1.747-1.718-2.792-3.091-3.127-4.125c-0.731-2.259,0.735-5.021,4.44-8.263
						c2.056-1.862,3.729-2.991,5.008-3.39c1.277-0.399,2.288-0.569,3.025-0.514c0.737,0.055,1.52,0.314,2.283,0.787
						c0.891,0.551,1.764,1.252,2.597,2.025c0.834,0.773,3.066,3.037,6.654,6.807c3.589,3.771,7.403,7.784,11.425,12.044
						c4.023,4.26,7.791,8.305,11.311,12.126c3.521,3.823,5.477,5.965,5.908,6.406c2.999-16.354,6.222-32.671,9.764-48.917
						c0.257-1.401,0.513-2.521,0.764-3.36c0.859-2.121,2.251-3.432,4.171-3.93C202.271,457.788,204.595,457.787,207.314,458.289z"/>
					<path style="fill:#FFFFFF;stroke:#FFFFFF;stroke-width:2.8338;stroke-linejoin:round;stroke-miterlimit:10;" d="
						M253.953,451.719c13.798,16.373,27.272,32.971,40.456,49.843c1.627,2.044,2.541,3.636,2.751,4.77
						c0.444,2.402-1.203,4.944-4.9,7.65c-2.169,1.587-3.928,2.516-5.292,2.783c-1.364,0.267-2.543,0.187-3.535-0.237
						c-0.994-0.425-1.752-0.932-2.27-1.519c-0.517-0.587-1.263-1.476-2.233-2.666c-3.062-3.868-4.603-5.797-7.705-9.645
						c-9.82,2.018-19.624,4.178-29.382,6.476c-1.2,4.797-1.789,7.195-2.945,11.993c-0.383,1.488-0.693,2.575-0.932,3.259
						c-0.24,0.685-0.72,1.449-1.436,2.284c-0.717,0.837-1.751,1.42-3.105,1.753c-1.354,0.332-3.348,0.23-5.988-0.296
						c-4.49-0.831-7.051-2.411-7.658-4.777c-0.287-1.117-0.126-2.945,0.497-5.486c4.89-20.886,10.152-41.65,15.794-62.347
						c0.465-1.706,1.427-3.213,2.887-4.516c1.459-1.302,3.12-2.159,4.978-2.568C247.945,447.588,251.294,448.677,253.953,451.719z
						 M250.22,477.521c-1.669,6.08-2.487,9.121-4.086,15.203c5.71-1.296,8.569-1.926,14.291-3.15
						C256.375,484.737,254.334,482.326,250.22,477.521z"/>
					<path style="fill:#FFFFFF;stroke:#FFFFFF;stroke-width:2.8338;stroke-linejoin:round;stroke-miterlimit:10;" d="
						M323.183,493.996c9.681-1.563,19.396-2.992,29.117-4.284c2.358-0.316,4.107-0.288,5.244,0.078
						c1.137,0.366,1.953,1.067,2.447,2.097c0.494,1.031,0.855,2.44,1.082,4.223c0.227,1.784,0.231,3.238,0.015,4.359
						c-0.217,1.123-0.722,1.94-1.517,2.453c-1.255,0.847-3.045,1.422-5.372,1.735c-12.704,1.706-25.379,3.625-38.019,5.756
						c-4.919,0.829-8.017,0.072-9.31-2.319c-0.611-0.994-1.124-2.66-1.539-4.999c-3.289-18.576-6.577-37.151-9.865-55.727
						c-0.272-1.536-0.421-2.699-0.445-3.488c-0.024-0.787,0.172-1.736,0.593-2.843c0.726-1.988,3.485-3.407,8.275-4.214
						c5.237-0.882,8.549-0.137,9.918,2.185c0.556,1.08,1.022,2.792,1.397,5.136C317.863,460.762,320.523,477.379,323.183,493.996z"
						/>
					<path style="fill:#FFFFFF;stroke:#FFFFFF;stroke-width:2.8338;stroke-linejoin:round;stroke-miterlimit:10;" d="
						M388.497,482.463c11.07-1.075,22.128-2.046,33.217-2.915c1.654-0.121,2.9-0.159,3.735-0.115c0.833,0.044,1.81,0.3,2.926,0.768
						c2.006,0.817,3.147,3.397,3.429,7.729c0.309,4.741-0.826,7.6-3.393,8.592c-1.178,0.489-3.006,0.82-5.485,1.002
						c-14.036,1.101-28.035,2.388-42.037,3.866c-4.949,0.547-7.993-0.386-9.146-2.847c-0.552-1.027-0.97-2.72-1.25-5.079
						c-2.226-18.733-4.452-37.465-6.678-56.198c-0.408-3.436,0.024-5.862,1.306-7.277c1.28-1.413,3.918-2.354,7.909-2.794
						c14.836-1.562,29.67-2.923,44.543-4.088c1.735-0.127,3.04-0.169,3.916-0.128c0.873,0.041,1.897,0.294,3.065,0.758
						c2.1,0.811,3.288,3.387,3.57,7.72c0.309,4.741-0.891,7.604-3.587,8.605c-1.238,0.493-3.156,0.83-5.757,1.022
						c-11.418,0.896-22.804,1.895-34.204,3.003c0.418,4.091,0.627,6.136,1.045,10.227c8.74-0.893,13.113-1.299,21.864-2.031
						c1.693-0.142,2.968-0.194,3.824-0.161c0.854,0.033,1.857,0.278,3.004,0.732c2.062,0.793,3.252,3.358,3.579,7.688
						c0.357,4.737-0.817,7.613-3.512,8.642c-1.203,0.504-3.073,0.857-5.612,1.07c-8.532,0.715-12.796,1.112-21.317,1.982
						C387.87,476.327,388.079,478.372,388.497,482.463z"/>
					<path style="fill:#FFFFFF;stroke:#FFFFFF;stroke-width:2.8338;stroke-linejoin:round;stroke-miterlimit:10;" d="
						M491.438,423.034c0.701-1.195,1.767-2.007,3.2-2.429c1.43-0.422,3.225-0.641,5.38-0.654s3.895,0.153,5.217,0.49
						c1.322,0.337,2.306,0.746,2.947,1.221c0.639,0.474,1.085,1.243,1.411,2.139c0.385,1.058,0.671,2.818,0.664,5.193
						c-0.05,18.83-0.1,37.661-0.15,56.491c-0.004,1.629-0.061,2.817-0.17,3.562c-0.109,0.747-0.45,1.627-1.021,2.644
						c-1,1.83-3.768,2.739-8.31,2.765c-2.769,0.016-4.687-0.168-5.757-0.564c-1.069-0.396-1.966-1.029-2.688-1.902
						c-10.809-13.229-21.744-26.344-33.193-39.025c0.451,11.153,0.901,22.307,1.352,33.46c0.066,1.628,0.06,2.817-0.016,3.566
						c-0.077,0.751-0.38,1.645-0.906,2.686c-0.921,1.872-3.648,2.899-8.186,3.12c-4.399,0.214-7.141-0.548-8.238-2.322
						c-0.626-0.985-1.016-1.88-1.169-2.687c-0.153-0.807-0.274-1.989-0.362-3.548c-1.073-18.902-2.147-37.804-3.22-56.706
						c-0.146-2.574,0.102-4.474,0.753-5.7c0.649-1.225,1.68-2.082,3.094-2.564c1.411-0.483,3.253-0.783,5.518-0.893
						c2.266-0.11,4.07-0.005,5.407,0.309c1.336,0.314,2.28,0.701,2.829,1.151c0.309,0.191,1.215,1.036,2.708,2.538
						c10.93,12.46,21.668,25.074,32.381,37.721c-0.157-11.467-0.314-22.934-0.47-34.401
						C490.406,426.119,490.736,424.231,491.438,423.034z"/>
					<path style="fill:#FFFFFF;stroke:#FFFFFF;stroke-width:2.8338;stroke-linejoin:round;stroke-miterlimit:10;" d="
						M527.633,419.901c21.035,0.455,42.015,1.349,63.013,2.687c2.415,0.165,4.171,0.547,5.265,1.137
						c1.094,0.59,1.789,1.443,2.084,2.552c0.296,1.11,0.376,2.546,0.243,4.305c-0.132,1.761-0.426,3.15-0.877,4.17
						c-0.453,1.022-1.141,1.701-2.065,2.042c-1.388,0.511-3.31,0.678-5.771,0.51c-8.546-0.585-12.82-0.839-21.373-1.272
						c-0.863,17.044-1.727,34.089-2.59,51.133c-0.079,1.56-0.191,2.709-0.336,3.448c-0.145,0.741-0.509,1.589-1.091,2.544
						c-0.582,0.956-1.558,1.604-2.924,1.948c-1.368,0.343-3.151,0.465-5.349,0.371c-2.2-0.094-3.947-0.366-5.245-0.822
						c-1.299-0.457-2.196-1.184-2.695-2.187c-0.498-1.001-0.789-1.894-0.868-2.678c-0.079-0.782-0.093-1.954-0.039-3.515
						c0.588-17.022,1.177-34.044,1.765-51.066c-8.602-0.297-12.904-0.408-21.508-0.552c-2.392-0.04-4.142-0.317-5.257-0.84
						c-1.115-0.523-1.854-1.329-2.217-2.418c-0.363-1.088-0.537-2.515-0.519-4.28c0.018-1.764,0.219-3.169,0.608-4.218
						c0.388-1.047,1.038-1.771,1.95-2.166C523.205,420.139,525.138,419.859,527.633,419.901z"/>
					<path style="fill:#FFFFFF;stroke:#FFFFFF;stroke-width:2.8338;stroke-linejoin:round;stroke-miterlimit:10;" d="
						M607.101,432.917c0.129-1.555,0.281-2.717,0.458-3.486c0.177-0.767,0.607-1.635,1.295-2.598
						c1.205-1.738,4.225-2.407,9.05-1.968c5.275,0.48,8.281,2.044,9.011,4.638c0.261,1.186,0.275,2.96,0.041,5.323
						c-1.864,18.772-3.728,37.544-5.591,56.316c-0.161,1.621-0.332,2.798-0.512,3.53c-0.18,0.733-0.605,1.576-1.271,2.534
						c-1.173,1.726-4.019,2.364-8.547,1.952c-4.955-0.451-7.748-1.971-8.386-4.613c-0.336-1.116-0.407-2.858-0.211-5.226
						C603.991,470.517,605.546,451.717,607.101,432.917z"/>
					<path style="fill:#FFFFFF;stroke:#FFFFFF;stroke-width:2.8338;stroke-linejoin:round;stroke-miterlimit:10;" d="
						M692.603,437.13c0.891-1.063,2.08-1.687,3.566-1.867c1.484-0.179,3.297-0.1,5.432,0.245c2.134,0.344,3.83,0.795,5.083,1.346
						c1.253,0.551,2.16,1.117,2.716,1.691c0.555,0.573,0.869,1.406,1.044,2.343c0.207,1.107,0.199,2.891-0.198,5.232
						c-3.153,18.565-6.306,37.129-9.459,55.694c-0.273,1.606-0.524,2.768-0.755,3.486c-0.231,0.719-0.714,1.53-1.447,2.439
						c-1.292,1.64-4.182,2.078-8.682,1.352c-2.743-0.443-4.611-0.941-5.604-1.508c-0.993-0.567-1.776-1.34-2.346-2.321
						c-8.511-14.832-17.164-29.572-26.392-43.971c-1.392,11.075-2.785,22.151-4.177,33.226c-0.203,1.616-0.405,2.788-0.604,3.515
						c-0.2,0.728-0.647,1.56-1.338,2.5c-1.219,1.694-4.083,2.258-8.603,1.727c-4.381-0.514-6.964-1.718-7.755-3.648
						c-0.457-1.074-0.693-2.022-0.712-2.843c-0.018-0.821,0.057-2.007,0.227-3.559c2.054-18.821,4.108-37.641,6.162-56.462
						c0.28-2.563,0.838-4.396,1.683-5.498c0.843-1.101,2.003-1.776,3.478-2.019c1.473-0.243,3.342-0.236,5.599,0.029
						c2.257,0.265,4.022,0.666,5.292,1.197c1.268,0.53,2.137,1.067,2.605,1.602c0.274,0.239,1.03,1.222,2.258,2.95
						c8.753,14.095,17.291,28.31,25.803,42.55c1.735-11.336,3.469-22.672,5.204-34.008
						C691.073,440.003,691.711,438.195,692.603,437.13z"/>
					<path style="fill:#FFFFFF;stroke:#FFFFFF;stroke-width:2.8338;stroke-linejoin:round;stroke-miterlimit:10;" d="
						M732.433,498.409c10.953,2.215,21.863,4.527,32.774,6.947c1.627,0.369,2.836,0.699,3.627,0.986
						c0.789,0.286,1.654,0.818,2.591,1.593c1.691,1.37,2.035,4.172,1.039,8.398c-1.09,4.624-3.019,7.025-5.779,7.221
						c-1.277,0.121-3.132-0.099-5.57-0.652c-13.805-3.061-27.631-5.931-41.514-8.617c-4.907-0.924-7.551-2.706-7.938-5.397
						c-0.229-1.143-0.135-2.884,0.286-5.223c3.34-18.566,6.681-37.133,10.021-55.699c0.613-3.406,1.736-5.6,3.379-6.578
						c1.64-0.977,4.444-1.105,8.401-0.359c14.71,2.851,29.359,5.894,43.986,9.139c1.706,0.387,2.974,0.731,3.805,1.027
						c0.828,0.295,1.739,0.838,2.727,1.624c1.784,1.392,2.174,4.204,1.178,8.431c-1.09,4.624-3.082,7.01-5.97,7.176
						c-1.336,0.108-3.28-0.132-5.838-0.713c-11.234-2.49-22.469-4.871-33.748-7.151c-0.795,4.035-1.192,6.052-1.987,10.087
						c8.651,1.704,12.971,2.597,21.598,4.462c1.669,0.361,2.91,0.685,3.724,0.968c0.812,0.283,1.705,0.81,2.674,1.581
						c1.751,1.363,2.146,4.165,1.193,8.402c-1.042,4.635-3.013,7.04-5.905,7.234c-1.304,0.129-3.206-0.082-5.708-0.622
						c-8.411-1.817-12.623-2.687-21.057-4.348C733.626,492.357,733.228,494.374,732.433,498.409z"/>
					<path style="fill:#FFFFFF;stroke:#FFFFFF;stroke-width:2.8338;stroke-linejoin:round;stroke-miterlimit:10;" d="
						M814.158,461.232c0.971,1.388,1.087,3.51,0.383,6.201c-0.165,0.63-0.247,0.945-0.412,1.575
						c-0.43,1.642-0.821,2.837-1.172,3.586c-2.022,5.644-5.203,10.105-9.509,13.415c-4.306,3.31-8.909,4.35-13.866,3.136
						c-0.503-0.123-0.868-0.58-1.094-1.367c-0.226-0.788-0.205-1.742,0.068-2.864c0.272-1.12,0.647-1.954,1.125-2.502
						c0.478-0.547,0.928-0.822,1.35-0.823c0.421-0.002,0.746,0.008,0.971,0.028c0.224,0.02,0.663-0.047,1.315-0.2
						c0.65-0.153,1.259-0.439,1.825-0.859c1.5-1.096,2.687-3.072,3.557-5.933c-2.393-0.947-4.053-2.123-4.983-3.539
						c-0.93-1.415-0.957-3.935-0.076-7.562c0.641-2.637,1.486-4.51,2.537-5.615c1.051-1.105,2.389-1.687,4.01-1.741
						c1.619-0.054,4.022,0.315,7.199,1.12C810.563,458.093,812.894,459.425,814.158,461.232z"/>
					<path style="fill:#FFFFFF;stroke:#FFFFFF;stroke-width:2.8338;stroke-linejoin:round;stroke-miterlimit:10;" d="
						M810.923,524.513c-1.246-2.588-1.65-4.717-1.2-6.388c0.45-1.671,2.551-3.481,6.336-5.4c2.191-1.089,4.281-1.357,6.258-0.806
						c1.975,0.551,4.274,2.958,6.849,7.226c0.663,1.391,1.76,2.853,3.284,4.391c1.523,1.538,3.049,2.534,4.584,2.988
						c6.486,1.918,10.472,0.454,11.977-4.479c0.456-1.492-0.057-3.016-1.545-4.566c-1.488-1.549-3.509-2.954-6.054-4.203
						c-2.547-1.249-5.23-2.83-8.054-4.737c-2.826-1.908-5.399-3.923-7.72-6.051c-2.322-2.129-3.986-4.925-5-8.404
						c-1.014-3.477-0.966-7.311,0.168-11.504c1.559-5.763,5.294-10.157,11.277-13.112c5.981-2.953,13.166-3.242,21.457-0.795
						c4.401,1.299,8.263,3.014,11.573,5.128c3.309,2.114,5.486,3.916,6.546,5.385c0.86,1.08,1.29,1.621,2.146,2.703
						c1.657,2.588,2.273,4.531,1.86,5.824c-0.413,1.294-1.848,2.793-4.293,4.509c-3.473,2.46-6.485,3.293-9.069,2.493
						c-1.508-0.467-3.175-1.689-5.011-3.667c-0.176-0.195-0.493-0.647-0.947-1.351s-0.888-1.295-1.294-1.773
						c-1.261-1.301-3.07-2.304-5.421-3c-2.352-0.696-4.455-0.762-6.303-0.204c-1.85,0.559-3.029,1.738-3.545,3.53
						c-0.517,1.794-0.015,3.508,1.492,5.148c1.508,1.64,3.562,3.055,6.166,4.254c2.602,1.198,5.39,2.692,8.35,4.484
						c2.96,1.792,5.607,3.699,7.94,5.712c2.331,2.013,3.938,4.752,4.814,8.203c0.876,3.453,0.623,7.278-0.734,11.473
						c-1.358,4.198-3.46,7.599-6.284,10.22c-2.825,2.621-5.953,4.348-9.392,5.189c-6.65,1.683-13.096,1.59-19.419-0.282
						c-3.232-0.957-6.182-2.223-8.862-3.803c-2.68-1.58-4.766-3.173-6.253-4.789c-3.083-3.118-5.099-5.85-6.027-8.213
						C811.312,525.315,811.182,525.047,810.923,524.513z"/>
				</g>
			</g>
		</g>
		<g>
			<g>
				<g>
					<path style="fill:#213038;stroke:#FFFFFF;stroke-width:2.8338;stroke-linejoin:round;stroke-miterlimit:10;" d="
						M207.314,450.741c4.837,0.807,7.529,2.384,8.099,4.689c0.261,1.055,0.099,2.772-0.474,5.151
						c-5.4,20.875-10.41,41.814-15.038,62.873c-0.366,1.651-1.204,3.132-2.512,4.449c-1.308,1.317-2.787,2.21-4.443,2.681
						c-0.414,0.118-0.62,0.177-1.034,0.295c-1.724,0.492-3.486,0.523-5.294,0.094c-1.807-0.429-3.301-1.246-4.483-2.456
						c-15.053-15.459-30.376-30.601-46.008-45.474c-1.747-1.718-2.792-3.091-3.127-4.125c-0.731-2.259,0.735-5.021,4.44-8.263
						c2.056-1.862,3.729-2.991,5.008-3.39c1.277-0.399,2.288-0.569,3.025-0.514c0.737,0.055,1.52,0.314,2.283,0.787
						c0.891,0.551,1.764,1.252,2.597,2.025c0.834,0.773,3.066,3.037,6.654,6.807c3.589,3.771,7.403,7.784,11.425,12.044
						c4.023,4.26,7.791,8.305,11.311,12.126c3.521,3.823,5.477,5.965,5.908,6.406c2.999-16.354,6.222-32.671,9.764-48.917
						c0.257-1.401,0.513-2.521,0.764-3.36c0.859-2.121,2.251-3.432,4.171-3.93C202.271,450.241,204.595,450.24,207.314,450.741z"/>
					<path style="fill:#213038;stroke:#FFFFFF;stroke-width:2.8338;stroke-linejoin:round;stroke-miterlimit:10;" d="
						M253.953,444.171c13.798,16.373,27.272,32.971,40.456,49.843c1.627,2.044,2.541,3.636,2.751,4.77
						c0.444,2.402-1.203,4.944-4.9,7.65c-2.169,1.587-3.928,2.516-5.292,2.783c-1.364,0.267-2.543,0.187-3.535-0.237
						c-0.994-0.425-1.752-0.932-2.27-1.519c-0.517-0.587-1.263-1.476-2.233-2.666c-3.062-3.868-4.603-5.797-7.705-9.645
						c-9.82,2.018-19.624,4.178-29.382,6.476c-1.2,4.797-1.789,7.195-2.945,11.993c-0.383,1.488-0.693,2.575-0.932,3.259
						c-0.24,0.685-0.72,1.449-1.436,2.284c-0.717,0.837-1.751,1.42-3.105,1.753c-1.354,0.332-3.348,0.23-5.988-0.296
						c-4.49-0.831-7.051-2.411-7.658-4.777c-0.287-1.117-0.126-2.945,0.497-5.486c4.89-20.886,10.152-41.65,15.794-62.347
						c0.465-1.706,1.427-3.213,2.887-4.516c1.459-1.302,3.12-2.159,4.978-2.568C247.945,440.041,251.294,441.13,253.953,444.171z
						 M250.22,469.974c-1.669,6.08-2.487,9.121-4.086,15.203c5.71-1.296,8.569-1.926,14.291-3.15
						C256.375,477.189,254.334,474.779,250.22,469.974z"/>
					<path style="fill:#213038;stroke:#FFFFFF;stroke-width:2.8338;stroke-linejoin:round;stroke-miterlimit:10;" d="
						M323.183,486.449c9.681-1.563,19.396-2.992,29.117-4.284c2.358-0.316,4.107-0.288,5.244,0.078
						c1.137,0.366,1.953,1.067,2.447,2.097c0.494,1.031,0.855,2.44,1.082,4.223c0.227,1.784,0.231,3.238,0.015,4.359
						c-0.217,1.123-0.722,1.94-1.517,2.453c-1.255,0.847-3.045,1.422-5.372,1.735c-12.704,1.706-25.379,3.625-38.019,5.756
						c-4.919,0.829-8.017,0.072-9.31-2.319c-0.611-0.994-1.124-2.66-1.539-4.999c-3.289-18.576-6.577-37.151-9.865-55.727
						c-0.272-1.536-0.421-2.699-0.445-3.488c-0.024-0.787,0.172-1.736,0.593-2.843c0.726-1.988,3.485-3.407,8.275-4.214
						c5.237-0.882,8.549-0.137,9.918,2.185c0.556,1.08,1.022,2.792,1.397,5.136C317.863,453.215,320.523,469.832,323.183,486.449z"
						/>
					<path style="fill:#213038;stroke:#FFFFFF;stroke-width:2.8338;stroke-linejoin:round;stroke-miterlimit:10;" d="
						M388.497,474.916c11.07-1.075,22.128-2.046,33.217-2.915c1.654-0.121,2.9-0.159,3.735-0.115c0.833,0.044,1.81,0.3,2.926,0.768
						c2.006,0.817,3.147,3.397,3.429,7.729c0.309,4.741-0.826,7.6-3.393,8.592c-1.178,0.489-3.006,0.82-5.485,1.002
						c-14.036,1.101-28.035,2.388-42.037,3.866c-4.949,0.547-7.993-0.386-9.146-2.847c-0.552-1.027-0.97-2.72-1.25-5.079
						c-2.226-18.733-4.452-37.465-6.678-56.198c-0.408-3.436,0.024-5.862,1.306-7.277c1.28-1.413,3.918-2.354,7.909-2.794
						c14.836-1.562,29.67-2.923,44.543-4.088c1.735-0.127,3.04-0.169,3.916-0.128c0.873,0.041,1.897,0.294,3.065,0.758
						c2.1,0.811,3.288,3.387,3.57,7.72c0.309,4.741-0.891,7.604-3.587,8.605c-1.238,0.493-3.156,0.83-5.757,1.021
						c-11.418,0.896-22.804,1.895-34.204,3.003c0.418,4.091,0.627,6.136,1.045,10.227c8.74-0.893,13.113-1.299,21.864-2.031
						c1.693-0.142,2.968-0.194,3.824-0.161c0.854,0.033,1.857,0.278,3.004,0.732c2.062,0.793,3.252,3.358,3.579,7.688
						c0.357,4.737-0.817,7.613-3.512,8.642c-1.203,0.504-3.073,0.857-5.612,1.07c-8.532,0.715-12.796,1.112-21.317,1.982
						C387.87,468.779,388.079,470.825,388.497,474.916z"/>
					<path style="fill:#213038;stroke:#FFFFFF;stroke-width:2.8338;stroke-linejoin:round;stroke-miterlimit:10;" d="
						M491.438,415.487c0.701-1.195,1.767-2.007,3.2-2.429c1.43-0.422,3.225-0.641,5.38-0.654s3.895,0.153,5.217,0.49
						c1.322,0.337,2.306,0.746,2.947,1.221c0.639,0.474,1.085,1.243,1.411,2.139c0.385,1.058,0.671,2.818,0.664,5.193
						c-0.05,18.83-0.1,37.661-0.15,56.491c-0.004,1.629-0.061,2.817-0.17,3.562c-0.109,0.747-0.45,1.627-1.021,2.644
						c-1,1.83-3.768,2.739-8.31,2.765c-2.769,0.016-4.687-0.168-5.757-0.564c-1.069-0.396-1.966-1.029-2.688-1.902
						c-10.809-13.229-21.744-26.344-33.193-39.025c0.451,11.153,0.901,22.307,1.352,33.46c0.066,1.628,0.06,2.817-0.016,3.566
						c-0.077,0.751-0.38,1.645-0.906,2.686c-0.921,1.872-3.648,2.899-8.186,3.12c-4.399,0.214-7.141-0.548-8.238-2.322
						c-0.626-0.985-1.016-1.88-1.169-2.687c-0.153-0.807-0.274-1.989-0.362-3.548c-1.073-18.902-2.147-37.804-3.22-56.706
						c-0.146-2.574,0.102-4.474,0.753-5.7c0.649-1.225,1.68-2.082,3.094-2.564c1.411-0.483,3.253-0.783,5.518-0.893
						c2.266-0.11,4.07-0.005,5.407,0.309c1.336,0.314,2.28,0.701,2.829,1.151c0.309,0.191,1.215,1.036,2.708,2.538
						c10.93,12.46,21.668,25.074,32.381,37.721c-0.157-11.467-0.314-22.934-0.47-34.401
						C490.406,418.572,490.736,416.683,491.438,415.487z"/>
					<path style="fill:#213038;stroke:#FFFFFF;stroke-width:2.8338;stroke-linejoin:round;stroke-miterlimit:10;" d="
						M527.633,412.354c21.035,0.455,42.015,1.349,63.013,2.687c2.415,0.165,4.171,0.547,5.265,1.137
						c1.094,0.59,1.789,1.443,2.084,2.552c0.296,1.11,0.376,2.546,0.243,4.305c-0.132,1.761-0.426,3.15-0.877,4.17
						c-0.453,1.022-1.141,1.701-2.065,2.042c-1.388,0.511-3.31,0.678-5.771,0.51c-8.546-0.585-12.82-0.839-21.373-1.272
						c-0.863,17.044-1.727,34.089-2.59,51.133c-0.079,1.56-0.191,2.709-0.336,3.448c-0.145,0.741-0.509,1.589-1.091,2.544
						c-0.582,0.956-1.558,1.604-2.924,1.948c-1.368,0.343-3.151,0.465-5.349,0.371c-2.2-0.094-3.947-0.366-5.245-0.822
						c-1.299-0.457-2.196-1.184-2.695-2.187c-0.498-1.001-0.789-1.894-0.868-2.678c-0.079-0.782-0.093-1.954-0.039-3.515
						c0.588-17.022,1.177-34.044,1.765-51.066c-8.602-0.297-12.904-0.408-21.508-0.552c-2.392-0.04-4.142-0.317-5.257-0.84
						c-1.115-0.523-1.854-1.329-2.217-2.418c-0.363-1.088-0.537-2.515-0.519-4.28c0.018-1.764,0.219-3.169,0.608-4.218
						c0.388-1.047,1.038-1.771,1.95-2.166C523.205,412.592,525.138,412.312,527.633,412.354z"/>
					<path style="fill:#213038;stroke:#FFFFFF;stroke-width:2.8338;stroke-linejoin:round;stroke-miterlimit:10;" d="
						M607.101,425.369c0.129-1.555,0.281-2.717,0.458-3.486c0.177-0.767,0.607-1.635,1.295-2.598
						c1.205-1.738,4.225-2.407,9.05-1.968c5.275,0.48,8.281,2.044,9.011,4.638c0.261,1.186,0.275,2.96,0.041,5.323
						c-1.864,18.772-3.728,37.544-5.591,56.316c-0.161,1.621-0.332,2.798-0.512,3.53c-0.18,0.733-0.605,1.576-1.271,2.534
						c-1.173,1.726-4.019,2.364-8.547,1.952c-4.955-0.451-7.748-1.971-8.386-4.613c-0.336-1.116-0.407-2.858-0.211-5.226
						C603.991,462.97,605.546,444.17,607.101,425.369z"/>
					<path style="fill:#213038;stroke:#FFFFFF;stroke-width:2.8338;stroke-linejoin:round;stroke-miterlimit:10;" d="
						M692.603,429.583c0.891-1.063,2.08-1.688,3.566-1.867c1.484-0.179,3.297-0.1,5.432,0.245c2.134,0.344,3.83,0.795,5.083,1.346
						c1.253,0.551,2.16,1.117,2.716,1.691c0.555,0.573,0.869,1.406,1.044,2.343c0.207,1.107,0.199,2.891-0.198,5.232
						c-3.153,18.565-6.306,37.129-9.459,55.694c-0.273,1.606-0.524,2.768-0.755,3.486c-0.231,0.719-0.714,1.53-1.447,2.439
						c-1.292,1.64-4.182,2.078-8.682,1.352c-2.743-0.443-4.611-0.941-5.604-1.508c-0.993-0.567-1.776-1.34-2.346-2.321
						c-8.511-14.832-17.164-29.572-26.392-43.971c-1.392,11.075-2.785,22.151-4.177,33.226c-0.203,1.616-0.405,2.788-0.604,3.515
						c-0.2,0.728-0.647,1.56-1.338,2.5c-1.219,1.694-4.083,2.258-8.603,1.727c-4.381-0.514-6.964-1.718-7.755-3.648
						c-0.457-1.074-0.693-2.022-0.712-2.843c-0.018-0.821,0.057-2.007,0.227-3.559c2.054-18.821,4.108-37.641,6.162-56.462
						c0.28-2.563,0.838-4.396,1.683-5.498c0.843-1.101,2.003-1.776,3.478-2.019c1.473-0.243,3.342-0.236,5.599,0.029
						c2.257,0.265,4.022,0.666,5.292,1.197c1.268,0.53,2.137,1.067,2.605,1.602c0.274,0.239,1.03,1.222,2.258,2.95
						c8.753,14.095,17.291,28.31,25.803,42.55c1.735-11.336,3.469-22.672,5.204-34.008
						C691.073,432.455,691.711,430.648,692.603,429.583z"/>
					<path style="fill:#213038;stroke:#FFFFFF;stroke-width:2.8338;stroke-linejoin:round;stroke-miterlimit:10;" d="
						M732.433,490.861c10.953,2.215,21.863,4.527,32.774,6.947c1.627,0.369,2.836,0.699,3.627,0.986
						c0.789,0.286,1.654,0.818,2.591,1.593c1.691,1.37,2.035,4.172,1.039,8.398c-1.09,4.624-3.019,7.025-5.779,7.221
						c-1.277,0.121-3.132-0.099-5.57-0.652c-13.805-3.061-27.631-5.931-41.514-8.617c-4.907-0.924-7.551-2.706-7.938-5.397
						c-0.229-1.143-0.135-2.884,0.286-5.223c3.34-18.566,6.681-37.133,10.021-55.699c0.613-3.406,1.736-5.6,3.379-6.578
						c1.64-0.977,4.444-1.106,8.401-0.359c14.71,2.851,29.359,5.894,43.986,9.139c1.706,0.387,2.974,0.731,3.805,1.027
						c0.828,0.295,1.739,0.838,2.727,1.624c1.784,1.392,2.174,4.204,1.178,8.431c-1.09,4.624-3.082,7.01-5.97,7.176
						c-1.336,0.108-3.28-0.132-5.838-0.713c-11.234-2.49-22.469-4.871-33.748-7.151c-0.795,4.035-1.192,6.052-1.987,10.087
						c8.651,1.704,12.971,2.597,21.598,4.462c1.669,0.361,2.91,0.685,3.724,0.968c0.812,0.283,1.705,0.81,2.674,1.581
						c1.751,1.363,2.146,4.165,1.193,8.402c-1.042,4.635-3.013,7.04-5.905,7.234c-1.304,0.129-3.206-0.082-5.708-0.622
						c-8.411-1.817-12.623-2.687-21.057-4.348C733.626,484.809,733.228,486.827,732.433,490.861z"/>
					<path style="fill:#213038;stroke:#FFFFFF;stroke-width:2.8338;stroke-linejoin:round;stroke-miterlimit:10;" d="
						M814.158,453.685c0.971,1.388,1.087,3.51,0.383,6.201c-0.165,0.63-0.247,0.945-0.412,1.575
						c-0.43,1.642-0.821,2.837-1.172,3.586c-2.022,5.644-5.203,10.105-9.509,13.415c-4.306,3.31-8.909,4.35-13.866,3.136
						c-0.503-0.123-0.868-0.58-1.094-1.367c-0.226-0.788-0.205-1.742,0.068-2.864c0.272-1.12,0.647-1.954,1.125-2.502
						c0.478-0.547,0.928-0.822,1.35-0.823c0.421-0.002,0.746,0.008,0.971,0.028c0.224,0.02,0.663-0.047,1.315-0.2
						c0.65-0.153,1.259-0.439,1.825-0.859c1.5-1.096,2.687-3.072,3.557-5.933c-2.393-0.947-4.053-2.123-4.983-3.539
						c-0.93-1.415-0.957-3.935-0.076-7.562c0.641-2.637,1.486-4.51,2.537-5.615c1.051-1.105,2.389-1.687,4.01-1.741
						c1.619-0.054,4.022,0.315,7.199,1.12C810.563,450.545,812.894,451.878,814.158,453.685z"/>
					<path style="fill:#213038;stroke:#FFFFFF;stroke-width:2.8338;stroke-linejoin:round;stroke-miterlimit:10;" d="
						M810.923,516.965c-1.246-2.588-1.65-4.717-1.2-6.388c0.45-1.671,2.551-3.481,6.336-5.4c2.191-1.089,4.281-1.357,6.258-0.806
						c1.975,0.551,4.274,2.958,6.849,7.226c0.663,1.391,1.76,2.853,3.284,4.391c1.523,1.538,3.049,2.534,4.584,2.988
						c6.486,1.918,10.472,0.454,11.977-4.479c0.456-1.492-0.057-3.016-1.545-4.566c-1.488-1.549-3.509-2.954-6.054-4.203
						c-2.547-1.249-5.23-2.83-8.054-4.737c-2.826-1.908-5.399-3.923-7.72-6.051c-2.322-2.129-3.986-4.925-5-8.404
						c-1.014-3.477-0.966-7.311,0.168-11.504c1.559-5.763,5.294-10.157,11.277-13.112c5.981-2.953,13.166-3.242,21.457-0.795
						c4.401,1.299,8.263,3.014,11.573,5.128c3.309,2.114,5.486,3.916,6.546,5.385c0.86,1.08,1.29,1.621,2.146,2.703
						c1.657,2.588,2.273,4.531,1.86,5.824c-0.413,1.294-1.848,2.793-4.293,4.509c-3.473,2.46-6.485,3.293-9.069,2.493
						c-1.508-0.467-3.175-1.689-5.011-3.667c-0.176-0.195-0.493-0.647-0.947-1.351s-0.888-1.295-1.294-1.773
						c-1.261-1.301-3.07-2.304-5.421-3c-2.352-0.696-4.455-0.762-6.303-0.204c-1.85,0.559-3.029,1.738-3.545,3.53
						c-0.517,1.794-0.015,3.508,1.492,5.148c1.508,1.64,3.562,3.055,6.166,4.254c2.602,1.198,5.39,2.692,8.35,4.484
						c2.96,1.792,5.607,3.699,7.94,5.712c2.331,2.013,3.938,4.752,4.814,8.203c0.876,3.453,0.623,7.278-0.734,11.473
						c-1.358,4.198-3.46,7.599-6.284,10.22c-2.825,2.621-5.953,4.348-9.392,5.189c-6.65,1.683-13.096,1.59-19.419-0.282
						c-3.232-0.957-6.182-2.223-8.862-3.803c-2.68-1.58-4.766-3.173-6.253-4.789c-3.083-3.118-5.099-5.85-6.027-8.213
						C811.312,517.767,811.182,517.5,810.923,516.965z"/>
				</g>
			</g>
		</g>
	</g>
	
		<text transform="matrix(1 0 0 1 216.8899 184.0178)" style="fill:#F8EDEC; font-family:'FredokaOne-Regular'; font-size:48px; letter-spacing:1;">LOGO</text>
	<g>
		
			<text transform="matrix(1 0 0 1 395.1693 623.1351)" style="fill:#FFFFFF;stroke:#213038;stroke-width:3.8511;stroke-linecap:round;stroke-linejoin:round;stroke-miterlimit:10; font-family:'FredokaOne-Regular'; font-size:109.7558px; letter-spacing:2;">DAY</text>
	</g>
	
		<text transform="matrix(1 0 0 1 1339.2307 178.0077)" style="fill:#F57B67; font-family:'FredokaOne-Regular'; font-size:23px; letter-spacing:1;">CONTACT</text>
	
		<text transform="matrix(1 0 0 1 1516.3235 178.0078)" style="fill:#FFB3A6; font-family:'FredokaOne-Regular'; font-size:23px; letter-spacing:1;">SEARCH</text>
	
		<text transform="matrix(1 0 0 1 1200.0857 178.0077)" style="fill:#F57B67; font-family:'FredokaOne-Regular'; font-size:23px; letter-spacing:1;">ABOUT</text>
	
		<text transform="matrix(1 0 0 1 1033.5382 178.0077)" style="fill:#F57B67; font-family:'FredokaOne-Regular'; font-size:23px; letter-spacing:1;">GALLERY</text>
	
		<text transform="matrix(1 0 0 1 906.6881 178.0077)" style="fill:#F8EDEC; font-family:'FredokaOne-Regular'; font-size:23px; letter-spacing:1;">HOME</text>
	<rect x="143.315" y="689.281" style="fill:none;" width="727.464" height="106.998"/>
	<text transform="matrix(1 0 0 1 147.9679 706.2865)"><tspan x="0" y="0" style="fill:#213038; font-family:'FredokaOne-Regular'; font-size:22px; letter-spacing:1;">Lorem ipsum dolor sit amet, consectetur adipiscing elit. Fusce </tspan><tspan x="-2.266" y="26.4" style="fill:#213038; font-family:'FredokaOne-Regular'; font-size:22px; letter-spacing:1;">commodo nisl risus. Vestibulum quis odio ut nisl dignissim eff</tspan><tspan x="710.897" y="26.4" style="fill:#213038; font-family:'FredokaOne-Regular'; font-size:22px; letter-spacing:1;">-</tspan><tspan x="25.52" y="52.8" style="fill:#213038; font-family:'FredokaOne-Regular'; font-size:22px; letter-spacing:1;">citur eu non magna. Aliquam ut tincidunt massa. Vivamus </tspan><tspan x="36.221" y="79.2" style="fill:#213038; font-family:'FredokaOne-Regular'; font-size:22px; letter-spacing:1;">nulla leo, dictum ac enim sit amet, iaculis sagittis ipsum.</tspan></text>
	
		<text transform="matrix(1 0 0 1 314.8181 863.8438)" style="fill:#F8EDEC; font-family:'FredokaOne-Regular'; font-size:24px; letter-spacing:1;">REGISTER</text>
	
		<text transform="matrix(1 0 0 1 560.4408 863.8438)" style="fill:#213038; font-family:'FredokaOne-Regular'; font-size:24px; letter-spacing:1;">READ MORE</text>
</g>
</svg>
